<?xml version="1.0" standalone="no"?>
<!DOCTYPE svg PUBLIC "-//W3C//DTD SVG 20010904//EN"
 "http://www.w3.org/TR/2001/REC-SVG-20010904/DTD/svg10.dtd">
<svg version="1.0" xmlns="http://www.w3.org/2000/svg"
 width="1024.000000pt" height="1024.000000pt" viewBox="0 0 1024.000000 1024.000000"
 preserveAspectRatio="xMidYMid meet">
<metadata>
Created by potrace 1.14, written by Peter Selinger 2001-2017
</metadata>
<g transform="translate(0.000000,1024.000000) scale(0.100000,-0.100000)"
fill="#000000" stroke="none">
<path d="M2483 9958 c-47 -23 -61 -117 -26 -185 40 -78 148 -81 180 -5 28 66
-9 161 -72 188 -40 16 -52 17 -82 2z"/>
<path d="M8351 9489 c-21 -19 -23 -29 -19 -90 4 -71 21 -103 65 -120 31 -12
89 7 113 38 73 93 -74 251 -159 172z"/>
<path d="M655 9381 c-72 -30 -84 -159 -18 -210 47 -38 129 -24 170 29 15 18
17 79 4 113 -19 49 -108 87 -156 68z"/>
<path d="M1281 9081 c-21 -6 -28 -18 -42 -79 -23 -92 -53 -159 -87 -196 -50
-53 -153 -125 -213 -148 -32 -12 -61 -29 -64 -37 -8 -20 26 -44 106 -76 96
-37 153 -78 194 -140 48 -72 66 -125 73 -215 7 -74 7 -75 37 -78 17 -1 36 2
43 6 7 5 28 58 45 118 45 151 95 220 202 279 98 55 145 87 145 100 0 8 -25 21
-57 30 -78 23 -119 45 -176 95 -75 66 -105 131 -137 293 -12 60 -16 63 -69 48z
m51 -413 c20 -29 38 -60 40 -68 4 -12 -45 -100 -56 -100 -7 0 -86 119 -86 129
0 14 50 91 60 91 4 0 23 -24 42 -52z"/>
<path d="M9714 8948 c-55 -14 -90 -120 -130 -398 -70 -487 -120 -618 -309
-799 -144 -138 -362 -265 -610 -355 -135 -49 -165 -63 -171 -81 -16 -41 34
-57 273 -85 294 -34 436 -94 551 -233 53 -64 137 -228 198 -384 45 -114 104
-322 104 -367 0 -11 5 -38 11 -58 l10 -38 64 0 c35 0 66 4 69 9 3 5 12 58 20
117 8 60 28 170 45 244 87 377 172 541 345 669 l56 42 0 249 0 249 -31 23
c-52 38 -184 193 -217 255 -61 116 -89 226 -142 554 -27 173 -54 330 -60 350
-11 41 -30 50 -76 37z m115 -1551 c-17 -43 -56 -116 -86 -162 l-55 -85 -35 68
c-19 37 -52 94 -73 127 -20 33 -40 69 -43 80 -5 14 13 51 59 125 35 58 74 124
86 147 l21 41 79 -131 79 -131 -32 -79z"/>
<path d="M4735 8869 c-528 -27 -817 -83 -1260 -244 -356 -129 -696 -322 -950
-540 -174 -148 -371 -348 -470 -476 -103 -132 -268 -384 -347 -529 -63 -116
-181 -389 -234 -540 -134 -387 -197 -781 -198 -1255 -2 -530 45 -781 239
-1270 64 -161 204 -439 309 -614 129 -214 253 -368 472 -582 169 -165 259
-242 418 -353 503 -355 1039 -559 1653 -630 468 -55 901 -42 1299 39 302 61
657 183 959 331 343 167 596 354 900 665 165 168 212 224 326 379 262 357 448
759 563 1216 56 225 86 437 101 729 7 128 -8 497 -26 630 -87 660 -343 1258
-758 1765 -114 139 -342 372 -464 473 -537 446 -1107 699 -1757 781 -267 34
-477 41 -775 25z m210 -173 c132 -8 254 -14 270 -14 17 0 50 -4 75 -8 25 -4
95 -7 155 -6 l110 2 -57 -20 c-32 -11 -84 -26 -115 -33 -91 -20 -326 -12 -427
15 -52 13 -123 18 -341 22 -133 2 -195 8 -237 20 -32 10 -58 19 -58 20 0 1 56
3 124 3 68 0 131 5 139 9 17 10 12 10 362 -10z m-700 -98 l150 -49 -75 8 c-41
3 -100 7 -130 7 -35 1 -66 7 -82 18 -14 9 -49 23 -78 30 -59 15 -66 30 -18 39
43 8 56 5 233 -53z m1500 -3 c-16 -14 -50 -37 -75 -52 -25 -14 -54 -34 -65
-44 -26 -24 -126 -49 -190 -49 -27 0 -72 7 -100 14 l-50 14 60 1 c33 1 76 6
95 12 19 6 55 10 80 10 53 -2 170 51 209 93 14 14 34 26 45 26 19 0 18 -3 -9
-25z m-2038 -26 c15 -6 93 -24 172 -40 79 -17 167 -39 195 -50 72 -28 169 -49
224 -49 26 0 67 -9 91 -20 24 -11 62 -20 85 -19 22 1 111 -6 196 -16 85 -9
164 -17 175 -17 55 -2 194 11 211 19 10 5 62 6 114 3 l95 -5 -65 -13 c-36 -8
-69 -16 -74 -20 -5 -3 -33 -7 -63 -8 -30 -2 -58 -6 -63 -9 -4 -3 -41 -11 -82
-18 -77 -14 -194 -13 -293 2 -33 5 -85 12 -115 14 -63 6 -110 16 -125 27 -5 4
-35 10 -65 14 -30 4 -80 11 -110 17 -30 5 -81 12 -113 16 -39 4 -62 11 -70 23
-9 14 -29 19 -72 22 -33 2 -62 6 -65 9 -5 6 -74 31 -197 70 -56 17 -73 27 -73
41 0 21 41 25 87 7z m-410 -181 c29 -21 57 -38 62 -38 6 0 14 -6 18 -13 4 -7
23 -19 41 -26 17 -8 32 -17 32 -21 0 -9 99 -57 136 -66 13 -3 28 -12 35 -20 6
-8 20 -14 29 -14 10 0 31 -6 47 -14 98 -50 153 -70 198 -72 27 -1 58 -5 69 -9
10 -5 38 -9 62 -9 27 -1 44 -6 44 -13 0 -18 20 -27 75 -34 28 -4 88 -12 135
-18 137 -20 380 3 492 45 55 21 73 24 105 16 36 -9 203 -21 358 -26 39 -1 94
4 123 10 30 6 62 9 73 7 11 -3 48 0 82 7 34 7 97 14 140 15 42 2 92 8 110 13
17 6 56 13 85 17 29 3 67 12 85 19 18 8 59 22 92 31 41 12 70 28 92 51 17 19
35 34 40 34 18 0 130 82 160 117 20 23 30 30 26 18 -11 -35 -67 -107 -94 -120
-14 -8 -62 -45 -107 -84 -74 -64 -89 -72 -179 -99 -136 -41 -228 -63 -298 -72
-33 -4 -68 -11 -78 -15 -10 -4 -24 -2 -32 5 -12 10 -24 10 -61 0 -45 -13 -176
-15 -514 -10 -80 1 -178 -3 -218 -9 -112 -17 -448 -33 -537 -25 -44 3 -91 12
-105 19 -14 7 -43 18 -65 23 -22 6 -59 15 -81 21 -23 6 -51 11 -63 11 -12 0
-32 6 -44 14 -12 8 -38 17 -57 20 -49 8 -168 50 -182 64 -7 7 -21 12 -32 12
-42 1 -148 37 -158 53 -5 9 -19 17 -32 17 -42 0 -96 28 -96 50 0 14 -7 20 -24
20 -39 0 -135 105 -114 125 2 2 25 -7 51 -21 64 -32 69 -30 19 6 -23 17 -42
35 -42 40 0 14 30 -2 97 -52z m2794 3 c-12 -22 -182 -111 -213 -111 -10 0 -60
-12 -110 -26 -80 -23 -98 -25 -157 -16 -37 5 -52 10 -34 11 60 2 175 31 203
51 15 11 30 17 33 14 9 -9 103 15 175 44 40 15 72 36 85 54 16 22 23 26 25 14
2 -8 -2 -24 -7 -35z m-2936 -161 c17 -8 44 -27 62 -43 20 -19 38 -27 48 -23
10 4 25 -4 40 -20 17 -18 30 -24 44 -19 14 4 29 -4 54 -28 25 -26 40 -34 58
-30 17 3 31 -3 48 -21 14 -14 34 -26 46 -26 12 0 36 -11 54 -25 19 -13 55 -27
80 -30 25 -4 55 -10 66 -15 11 -5 36 -12 55 -16 19 -3 47 -13 62 -20 15 -8 40
-14 56 -14 15 0 33 -5 39 -11 15 -15 111 -39 198 -50 97 -12 568 -9 910 5 88
4 225 9 305 11 80 2 172 7 205 10 33 3 80 8 105 10 25 2 52 6 60 9 8 3 56 12
105 20 103 17 168 32 193 46 9 5 38 12 64 15 35 4 53 13 68 32 13 16 26 24 38
21 11 -3 30 3 43 13 14 10 33 16 45 13 14 -4 30 4 50 24 16 16 49 34 74 41 25
7 66 30 92 52 26 21 53 39 61 39 8 0 31 18 51 40 20 23 41 38 45 35 5 -3 -3
-17 -18 -33 -15 -15 -32 -34 -37 -43 -13 -23 -189 -150 -264 -191 -36 -20 -81
-39 -100 -43 -19 -4 -53 -16 -75 -26 -54 -24 -185 -57 -400 -100 -61 -12 -109
-25 -200 -51 -162 -47 -211 -56 -372 -68 -263 -19 -822 -9 -988 18 -71 11
-132 19 -136 16 -14 -8 -218 37 -277 62 -18 8 -42 14 -53 14 -11 0 -27 7 -35
15 -9 8 -30 15 -48 15 -17 0 -36 4 -42 10 -5 5 -23 11 -39 13 -34 3 -95 28
-95 39 0 4 -17 10 -37 14 -21 4 -45 12 -53 19 -8 8 -28 17 -45 21 -16 3 -37
12 -45 19 -8 7 -26 16 -40 20 -14 4 -33 14 -42 22 -9 8 -25 12 -36 9 -12 -4
-25 1 -37 13 -9 11 -33 25 -51 31 -30 10 -40 25 -35 53 1 4 -9 5 -22 2 -19 -5
-28 1 -47 28 -13 19 -36 43 -52 53 -32 22 -36 39 -10 48 9 3 32 14 51 25 l34
20 46 -37 c25 -21 60 -44 76 -52z m-281 -103 c18 -24 37 -37 52 -37 16 0 28
-10 39 -30 9 -16 19 -30 24 -30 6 0 97 -66 139 -101 7 -6 28 -9 45 -6 32 4 57
-7 110 -50 16 -13 40 -23 54 -23 15 0 34 -7 44 -16 9 -8 23 -16 31 -18 7 -1
24 -9 38 -18 30 -20 117 -41 138 -33 7 3 47 -7 88 -21 41 -14 78 -23 83 -19 5
3 25 -1 43 -9 18 -8 66 -20 107 -27 40 -7 79 -19 86 -26 8 -7 31 -13 52 -13
21 0 80 -9 130 -20 172 -36 371 -51 609 -45 597 14 641 17 819 45 33 6 92 14
130 19 97 12 133 23 277 81 69 27 133 50 142 50 8 0 30 7 48 15 18 8 67 28
108 46 41 17 87 42 102 54 15 12 44 26 65 29 22 5 53 21 73 40 35 33 82 51
155 60 l40 5 -40 -34 c-24 -21 -51 -35 -67 -35 -15 0 -42 -12 -60 -28 -18 -16
-50 -39 -70 -51 -21 -12 -38 -27 -38 -32 0 -6 -5 -7 -10 -4 -6 4 -50 -15 -98
-40 -85 -46 -279 -125 -305 -125 -7 0 -35 -11 -63 -24 -27 -13 -80 -31 -119
-41 -38 -9 -74 -20 -80 -24 -18 -15 -226 -57 -328 -68 -34 -3 -70 -10 -80 -15
-15 -8 -234 -28 -317 -29 -14 0 -126 5 -250 11 -124 6 -299 13 -390 15 -201 6
-278 11 -395 31 -225 37 -258 45 -288 70 -16 14 -43 28 -58 31 -16 3 -29 9
-29 13 0 4 -12 11 -27 14 -30 8 -138 48 -190 72 -17 8 -43 14 -58 14 -17 0
-35 10 -51 29 -15 18 -46 37 -77 47 -56 18 -204 90 -251 123 -16 10 -35 17
-42 14 -8 -3 -14 1 -14 8 0 15 -66 77 -134 128 -25 18 -46 38 -46 44 0 6 12
21 28 33 25 21 28 21 37 5 6 -9 23 -34 39 -54z m-36 -257 c2 0 31 -18 64 -40
33 -22 70 -40 82 -41 24 -1 -71 -28 -124 -35 -48 -7 -177 55 -185 89 -4 13
-18 28 -35 34 -20 8 -37 26 -53 59 l-23 49 41 37 40 37 94 -94 c52 -52 96 -95
99 -95z m-343 -13 c11 -23 31 -47 43 -53 13 -7 32 -25 42 -40 10 -16 55 -51
103 -79 89 -51 102 -65 66 -65 -31 0 -177 39 -217 58 -38 18 -121 124 -121
155 -1 16 44 67 58 67 3 -1 15 -20 26 -43z m-135 -139 c17 -49 36 -78 52 -78
5 0 24 -15 43 -32 58 -57 102 -88 125 -88 12 0 34 -13 48 -30 16 -18 36 -30
51 -30 14 0 35 -9 47 -21 12 -11 41 -25 64 -30 24 -5 54 -19 68 -29 13 -11 39
-20 56 -20 18 0 41 -7 52 -15 10 -8 29 -15 42 -15 13 0 35 -9 50 -20 29 -21
141 -52 183 -51 14 1 34 -8 44 -19 10 -12 31 -20 49 -20 17 0 40 -7 50 -15 11
-8 40 -15 64 -15 24 0 53 -5 64 -11 11 -6 48 -13 82 -15 33 -3 95 -13 136 -23
41 -11 140 -31 220 -46 80 -15 159 -31 175 -36 59 -18 261 -51 360 -58 95 -8
97 -8 35 -11 -36 -1 -99 -4 -140 -6 -41 -2 -113 1 -160 6 -122 15 -355 38
-428 44 -35 3 -68 9 -74 12 -6 4 -28 11 -47 15 -20 4 -70 16 -111 27 -41 11
-96 23 -121 26 -25 4 -68 15 -95 25 -27 11 -71 22 -99 26 -27 5 -63 16 -79 26
-16 10 -34 16 -38 13 -14 -9 -174 45 -198 66 -16 14 -31 17 -52 13 -24 -5 -34
-1 -51 21 -13 15 -47 35 -81 47 -32 11 -73 31 -91 45 -17 13 -38 24 -44 24 -7
0 -24 9 -38 20 -14 11 -39 20 -55 20 -21 0 -31 6 -37 23 -11 27 -47 54 -82 59
-15 2 -29 14 -39 35 -8 17 -24 42 -35 55 -11 13 -28 36 -38 52 -19 28 -19 28
9 57 15 16 33 28 39 26 5 -2 17 -24 25 -49z m4780 -36 c0 -10 -65 -82 -74 -82
-18 0 -1 33 31 59 41 34 43 35 43 23z m-4911 -96 c7 -13 52 -57 99 -99 48 -42
99 -87 113 -101 15 -14 33 -26 42 -26 8 0 20 -7 27 -15 7 -9 19 -14 25 -11 7
2 26 -9 41 -26 33 -34 80 -61 97 -55 7 2 28 -10 48 -28 41 -36 136 -72 152
-56 7 7 15 0 26 -22 13 -25 32 -38 96 -64 44 -18 87 -31 96 -28 9 3 22 -1 29
-10 6 -8 28 -18 48 -21 20 -4 50 -15 66 -25 37 -21 254 -77 351 -91 39 -5 79
-13 90 -18 11 -5 52 -11 90 -14 39 -2 108 -9 155 -15 47 -6 139 -18 205 -27
66 -9 154 -22 195 -31 41 -8 104 -18 140 -23 36 -5 103 -18 150 -29 95 -23
346 -30 410 -11 19 5 54 10 77 10 23 0 53 4 68 10 14 5 96 17 183 25 86 9 182
20 212 25 30 4 85 13 121 18 36 5 76 15 88 21 25 14 123 34 161 33 35 -1 163
46 173 64 4 8 23 14 42 14 19 0 37 5 40 11 4 5 31 21 60 34 29 13 58 32 64 44
6 11 29 25 52 31 22 6 49 20 60 31 11 11 26 18 32 16 7 -2 37 9 68 25 45 23
58 35 63 58 4 23 11 30 28 30 13 0 40 14 61 30 22 16 44 27 51 24 8 -3 17 8
22 27 6 22 21 39 44 52 41 22 98 74 105 96 5 16 104 65 113 56 3 -2 -14 -25
-37 -50 -22 -24 -41 -49 -41 -54 0 -5 -9 -11 -20 -14 -11 -3 -24 -17 -30 -31
-5 -14 -13 -26 -18 -26 -18 0 -92 -73 -92 -91 0 -10 -7 -19 -15 -19 -8 0 -38
-20 -67 -45 -29 -24 -70 -59 -91 -76 -84 -71 -164 -111 -177 -89 -6 9 -11 7
-19 -8 -6 -11 -28 -26 -48 -33 -21 -6 -57 -25 -80 -40 -23 -16 -44 -29 -48
-29 -4 0 -27 -14 -52 -32 -26 -17 -63 -34 -82 -38 -20 -4 -72 -18 -116 -30
-82 -23 -98 -27 -265 -54 -52 -9 -115 -21 -140 -27 -116 -28 -462 -55 -690
-53 -116 0 -357 29 -412 49 -25 9 -379 56 -416 55 -20 0 -66 5 -100 11 -51 10
-66 9 -72 0 -5 -9 -13 -10 -26 -3 -33 17 -174 42 -239 42 -36 0 -67 5 -71 11
-4 6 -20 9 -39 6 -20 -3 -48 2 -75 14 -24 11 -50 17 -57 15 -19 -8 -115 15
-134 31 -8 7 -20 13 -25 13 -5 1 -27 9 -49 20 -22 11 -47 19 -55 20 -29 0
-133 41 -164 64 -17 13 -51 31 -76 40 -25 10 -59 26 -76 37 -17 10 -43 19 -56
19 -14 0 -31 6 -37 14 -12 14 -82 50 -154 80 -20 8 -40 22 -43 31 -3 8 -13 15
-21 15 -32 0 -125 53 -133 76 -7 18 -17 24 -40 24 -35 0 -65 36 -53 66 6 16 4
17 -9 6 -17 -14 -15 -16 -71 64 l-35 51 26 27 c33 32 45 33 61 2z m4824 -16
c-7 -25 -29 -44 -43 -35 -8 5 -4 15 11 31 27 29 39 31 32 4z m-973 -40 c0 -19
-211 -112 -335 -148 -38 -11 -110 -32 -160 -47 -85 -26 -135 -31 -230 -26
l-40 2 57 20 c31 10 83 25 115 33 146 35 261 69 298 88 22 11 65 24 95 29 30
4 87 19 125 33 39 13 71 25 73 25 1 1 2 -3 2 -9z m470 -52 c-66 -40 -203 -99
-292 -124 -96 -28 -145 -28 -62 0 29 9 60 26 69 36 10 11 25 20 34 20 9 0 72
20 141 44 143 51 159 54 110 24z m-4413 -70 c29 -29 53 -59 53 -65 0 -7 12
-19 28 -27 15 -8 36 -23 46 -35 11 -12 27 -21 37 -21 10 0 21 -9 24 -20 10
-30 34 -50 61 -50 14 0 27 -7 30 -15 4 -8 11 -15 18 -15 6 0 30 -10 51 -21 22
-12 60 -32 85 -44 25 -13 54 -32 64 -44 11 -12 31 -21 47 -21 18 0 32 -7 39
-20 6 -11 21 -20 33 -20 12 0 40 -9 61 -21 21 -11 51 -22 67 -24 16 -2 47 -18
69 -35 26 -20 46 -29 58 -26 11 4 29 -2 45 -14 14 -11 32 -20 39 -20 13 0 103
-33 163 -60 11 -5 31 -11 45 -14 14 -2 52 -14 85 -26 85 -30 216 -62 223 -55
4 3 1 14 -5 25 -10 15 -9 19 4 24 18 7 152 -15 297 -49 56 -13 121 -26 146
-29 25 -4 72 -11 105 -17 284 -47 391 -60 583 -70 199 -11 565 -7 637 5 17 3
75 10 130 15 55 6 136 15 180 20 44 5 89 9 100 10 46 2 101 14 120 27 11 8 34
14 52 14 18 0 50 9 70 20 21 11 54 20 75 20 20 0 44 7 52 16 9 8 48 26 88 39
51 17 81 34 100 56 18 21 32 30 43 25 10 -3 27 2 42 14 14 11 31 20 37 20 7 0
30 13 52 28 21 16 60 36 85 45 25 10 58 31 74 47 16 17 33 30 38 30 24 0 107
45 112 61 3 10 14 20 23 24 10 3 65 50 122 104 58 55 106 98 108 96 3 -2 -12
-24 -32 -48 -20 -24 -36 -51 -36 -59 0 -15 -40 -55 -127 -128 -23 -19 -44 -44
-47 -55 -3 -11 -18 -28 -33 -38 -55 -35 -129 -86 -159 -111 -18 -14 -39 -26
-47 -26 -8 0 -17 -6 -20 -14 -3 -8 -25 -24 -49 -35 -24 -12 -79 -46 -123 -76
-44 -30 -85 -55 -90 -55 -6 0 -29 -9 -50 -21 -39 -20 -59 -26 -210 -70 -126
-36 -419 -88 -530 -94 -33 -2 -96 -8 -141 -14 -80 -11 -810 -10 -830 1 -5 3
-74 6 -154 7 -80 1 -176 3 -215 6 -127 8 -220 16 -235 20 -8 2 -75 13 -149 25
-74 11 -140 25 -147 31 -13 10 -45 16 -134 23 -25 2 -65 12 -90 21 -25 9 -56
18 -70 19 -14 2 -77 18 -140 36 -63 18 -122 32 -130 33 -8 0 -23 6 -32 14 -9
9 -30 16 -46 17 -16 1 -36 9 -46 19 -10 9 -24 17 -33 17 -8 0 -27 9 -43 20
-15 11 -54 26 -86 35 -32 8 -62 22 -67 30 -4 8 -26 18 -48 21 -23 4 -44 14
-49 24 -5 10 -24 20 -42 23 -65 11 -93 20 -103 32 -5 6 -26 20 -45 30 -19 9
-45 26 -57 37 -13 13 -29 18 -39 14 -10 -4 -21 0 -28 9 -6 8 -34 23 -62 33
-28 10 -59 25 -68 35 -10 9 -29 17 -44 17 -34 1 -58 19 -71 54 -6 14 -20 30
-30 34 -11 4 -31 29 -46 55 l-25 48 27 47 c35 62 63 102 70 102 4 0 30 -24 60
-52z m1743 -33 c23 -8 59 -16 79 -16 33 -1 31 -2 -19 -13 -43 -10 -63 -10 -90
0 -19 6 -53 14 -75 18 -22 4 -47 11 -55 16 -25 16 113 12 160 -5z m3834 -46
c-25 -28 -216 -194 -223 -194 -24 -3 -52 -24 -91 -70 -25 -29 -55 -55 -66 -59
-12 -3 -32 -17 -45 -31 -13 -13 -31 -25 -39 -25 -8 0 -25 -16 -38 -35 -12 -19
-29 -35 -37 -35 -9 0 -35 -19 -59 -42 -58 -58 -118 -105 -153 -120 -15 -7 -41
-21 -58 -33 -16 -11 -72 -42 -124 -68 -52 -26 -100 -56 -107 -66 -7 -10 -35
-26 -61 -36 -26 -10 -73 -30 -103 -45 -88 -43 -169 -73 -185 -66 -13 5 -60 -8
-170 -46 -16 -6 -60 -14 -97 -19 -38 -4 -72 -11 -78 -14 -6 -3 -40 -10 -78
-15 -37 -6 -116 -17 -177 -26 -91 -13 -205 -16 -651 -16 -592 1 -848 12 -994
44 -124 27 -256 48 -303 48 -20 0 -45 4 -55 10 -9 5 -42 16 -72 24 -154 41
-248 65 -274 71 -58 12 -18 12 84 -1 126 -16 163 -22 390 -69 119 -24 213 -37
295 -41 66 -2 165 -9 221 -14 105 -10 312 -7 779 11 154 5 327 12 385 13 112
3 196 11 298 27 35 5 78 9 97 7 18 -1 39 3 47 10 17 14 131 42 171 42 16 0 40
9 54 20 14 11 33 20 42 20 9 0 28 6 43 14 14 8 50 17 80 21 29 4 63 13 75 21
12 8 37 14 54 14 18 0 51 11 73 24 23 13 58 27 79 31 20 4 47 18 60 31 12 13
27 24 32 24 6 0 37 11 70 24 49 20 61 30 67 54 7 25 16 32 68 46 33 9 66 26
73 36 8 11 28 25 45 31 20 7 40 25 53 49 14 25 38 46 68 61 26 14 52 36 59 52
7 15 20 27 30 27 26 0 149 88 188 134 25 30 42 42 54 39 12 -3 45 15 92 50 77
57 107 76 122 77 5 0 1 -9 -10 -21z m-2714 -59 c17 -11 -7 -14 -105 -10 -122
4 -136 18 -20 19 61 0 117 -4 125 -9z m950 -7 c0 -17 -328 -91 -435 -99 -58
-5 -59 -4 -33 11 33 19 232 59 461 94 4 0 7 -2 7 -6z m-1210 -63 c57 -6 49 -7
-62 -8 -80 -1 -128 2 -128 8 0 11 91 11 190 0z m-2762 -83 c31 -64 54 -96 98
-135 34 -31 67 -52 81 -52 15 0 23 -6 23 -18 0 -12 13 -23 38 -31 20 -8 47
-24 59 -37 12 -13 29 -24 37 -24 8 0 24 -12 35 -26 11 -14 25 -23 30 -20 15
10 60 -12 104 -49 30 -26 50 -35 76 -35 19 0 42 -7 52 -16 20 -18 238 -96 254
-90 5 2 29 -8 52 -21 23 -13 86 -39 140 -58 135 -46 217 -76 223 -82 14 -14
-281 55 -375 87 -33 11 -98 33 -145 49 -47 15 -101 35 -120 44 -19 9 -88 37
-153 63 -65 25 -139 57 -163 70 -25 13 -54 24 -65 24 -11 0 -36 16 -54 36 -19
20 -38 33 -43 30 -6 -3 -13 1 -16 10 -3 8 -10 13 -14 10 -5 -3 -16 4 -25 15
-9 10 -28 19 -41 19 -17 0 -26 7 -30 25 -4 14 -14 25 -24 25 -40 1 -123 105
-129 164 -6 46 17 106 41 106 7 0 31 -38 54 -83z m-121 -129 c25 -24 56 -60
69 -81 14 -21 36 -43 50 -49 14 -7 32 -24 39 -39 8 -15 26 -30 41 -33 15 -4
52 -28 83 -53 31 -25 80 -59 109 -76 29 -16 51 -31 49 -33 -2 -3 -43 9 -91 26
-48 17 -91 28 -96 25 -31 -19 -277 177 -305 243 -8 17 -21 32 -30 32 -14 0
-13 4 4 29 12 16 21 34 21 40 0 19 11 13 57 -31z m68 -353 c61 -50 128 -104
150 -118 22 -15 35 -27 29 -27 -29 0 -284 202 -344 273 l-35 42 45 -39 c25
-21 95 -80 155 -131z m6068 126 c-11 -9 -38 -29 -59 -45 -22 -17 -51 -41 -65
-54 -15 -13 -29 -20 -32 -15 -7 11 155 142 167 135 5 -3 0 -12 -11 -21z
m-6217 -103 c5 -10 54 -59 109 -109 98 -90 131 -126 123 -134 -4 -4 -104 74
-158 123 -14 12 -33 22 -42 22 -10 0 -18 5 -18 10 0 9 -54 73 -91 107 -10 9
-14 25 -11 45 l5 30 37 -38 c20 -22 41 -47 46 -56z m6269 -47 c-42 -50 -80
-91 -84 -91 -5 0 -19 -16 -32 -35 -14 -20 -36 -37 -51 -40 -16 -4 -30 -15 -34
-28 -6 -22 -144 -161 -177 -178 -9 -6 -22 -7 -27 -4 -6 4 -22 -7 -36 -24 -14
-17 -30 -31 -36 -31 -6 0 -49 -29 -97 -64 -47 -35 -108 -75 -136 -89 -27 -14
-70 -40 -95 -56 -25 -17 -53 -31 -62 -31 -9 0 -46 -20 -82 -45 -36 -24 -78
-47 -93 -51 -15 -4 -44 -14 -63 -24 -19 -10 -60 -27 -90 -40 -30 -12 -82 -34
-115 -50 -33 -16 -123 -49 -200 -74 -77 -25 -152 -55 -167 -66 -16 -11 -47
-25 -71 -30 -23 -4 -91 -23 -152 -40 -60 -17 -135 -38 -165 -46 -30 -8 -68
-20 -85 -26 -16 -6 -77 -26 -135 -45 -58 -18 -125 -40 -150 -48 -25 -8 -60
-15 -79 -15 -46 0 -162 -29 -181 -45 -8 -8 -49 -16 -91 -18 -42 -3 -85 -9 -95
-15 -11 -5 -62 -12 -114 -16 -52 -4 -111 -9 -130 -12 -42 -6 -63 -8 -285 -27
-93 -8 -197 -13 -230 -12 -33 2 -107 3 -165 3 -58 0 -116 1 -130 1 -65 1 -270
21 -315 31 -27 6 -81 12 -120 12 -38 1 -79 7 -90 13 -11 7 -54 16 -94 19 -41
4 -82 13 -90 20 -9 7 -45 16 -81 19 -36 3 -79 12 -96 21 -16 8 -48 18 -70 21
-51 8 -130 33 -174 55 -19 10 -60 21 -90 24 -34 3 -66 14 -84 28 -18 12 -46
22 -66 22 -20 1 -47 8 -61 17 -13 9 -51 24 -84 34 -33 9 -78 25 -100 35 -22
10 -57 22 -78 25 -20 4 -53 20 -73 36 -20 16 -45 29 -56 29 -11 0 -26 7 -34
14 -8 8 -46 25 -85 38 -52 17 -74 29 -80 45 -5 15 -20 24 -46 29 -21 4 -43 11
-50 16 -7 5 -21 7 -33 3 -13 -4 -20 -2 -20 6 0 19 -31 49 -51 49 -10 0 -26 10
-36 23 -10 13 -31 27 -47 31 -28 7 -106 55 -134 83 -8 8 -27 20 -43 28 -16 9
-35 28 -43 43 -8 15 -28 39 -45 55 -54 47 -30 101 25 58 15 -12 32 -21 39 -21
7 0 23 -11 36 -25 13 -14 39 -32 57 -40 21 -9 32 -21 32 -34 0 -12 7 -21 15
-21 8 0 28 -14 43 -31 25 -28 31 -30 50 -20 20 11 22 9 22 -13 0 -19 8 -27 33
-35 17 -6 58 -29 91 -51 32 -22 64 -40 71 -40 7 0 27 -13 45 -30 20 -18 43
-30 60 -30 15 0 47 -11 71 -24 24 -13 69 -32 99 -42 30 -10 66 -26 79 -36 13
-10 37 -18 52 -18 16 0 37 -8 48 -19 10 -10 34 -21 52 -24 67 -10 111 -26 133
-46 15 -14 36 -21 62 -21 21 0 48 -7 58 -15 11 -8 33 -15 48 -15 16 0 45 -8
66 -19 20 -10 55 -21 77 -24 71 -11 170 -35 209 -51 21 -9 55 -16 75 -16 20 0
59 -7 86 -16 28 -8 88 -22 135 -30 47 -9 108 -20 135 -26 62 -12 175 -23 368
-37 82 -6 152 -13 157 -16 17 -10 624 -6 659 4 19 6 44 8 55 6 44 -11 406 35
521 65 95 25 219 67 257 86 15 8 40 14 56 14 15 0 50 11 78 24 34 17 73 25
130 29 52 3 91 11 107 22 14 9 46 18 72 20 25 2 56 10 68 18 12 8 37 18 54 21
17 4 37 14 44 22 7 8 29 14 56 14 36 0 50 6 75 30 16 17 35 30 41 30 30 1 199
61 248 89 31 17 67 31 81 31 14 0 37 9 50 20 14 10 28 17 31 14 7 -7 67 24 67
35 0 5 21 17 48 25 26 9 67 30 92 46 25 16 50 30 57 30 7 0 20 8 30 19 10 10
34 22 53 26 42 9 77 26 109 54 13 12 36 21 51 21 19 0 42 15 79 51 32 31 69
56 98 66 26 9 55 26 64 37 9 11 32 25 50 31 21 7 35 19 37 31 2 11 22 30 48
43 24 13 59 40 76 60 38 43 301 280 307 275 2 -1 -31 -44 -74 -93z m-339 47
c-14 -18 -74 -81 -133 -139 -94 -92 -145 -133 -250 -199 -13 -8 -25 -22 -28
-31 -3 -8 -26 -25 -53 -37 -26 -12 -67 -32 -92 -46 -25 -13 -78 -39 -118 -57
-41 -19 -78 -42 -83 -51 -6 -11 -21 -18 -39 -18 -17 0 -30 -4 -30 -9 0 -12
-254 -130 -318 -146 -31 -8 -77 -15 -102 -15 l-45 1 35 17 c19 9 36 24 38 33
3 14 -3 15 -49 7 -28 -5 -53 -7 -55 -5 -8 7 160 69 211 77 85 14 122 26 156
52 19 14 52 31 74 38 22 7 58 26 79 41 22 16 47 29 55 29 27 1 102 39 138 70
18 17 45 30 59 30 36 0 81 26 89 51 5 15 13 19 26 16 14 -4 38 11 82 52 46 43
72 60 100 64 47 7 107 51 107 78 0 11 7 19 16 19 19 0 90 48 123 84 34 36 37
33 7 -6z m-4968 -214 c78 -25 146 -43 151 -39 5 3 30 -4 56 -15 26 -11 65 -20
87 -20 23 0 66 -9 97 -19 50 -17 215 -47 311 -58 19 -2 48 -8 64 -13 16 -6 45
-10 65 -10 20 0 52 -5 72 -10 54 -15 319 -49 335 -43 8 3 36 0 63 -7 58 -14
229 -19 699 -19 188 -1 342 -5 342 -9 0 -14 -238 -65 -320 -69 -112 -6 -289
-3 -408 7 -58 4 -115 5 -127 0 -12 -5 -28 -4 -36 1 -8 5 -43 9 -79 9 -141 0
-493 42 -516 61 -6 5 -30 10 -53 11 -22 1 -41 5 -41 10 0 5 -4 7 -9 4 -13 -8
-120 13 -145 29 -12 7 -61 15 -109 18 -49 4 -94 10 -100 15 -7 6 -36 15 -65
21 -28 6 -79 20 -112 31 -33 11 -73 20 -89 20 -16 0 -45 9 -63 19 -18 11 -52
25 -75 32 -24 7 -43 18 -43 25 0 11 -95 54 -120 54 -5 0 -12 5 -16 11 -8 13
-9 13 184 -47z m-923 -185 c11 -3 29 -19 40 -36 11 -18 27 -32 36 -33 9 0 22
-7 30 -16 7 -8 26 -22 43 -31 17 -9 35 -22 39 -29 10 -17 80 -54 101 -54 9 0
25 -13 38 -30 16 -22 30 -30 52 -30 17 0 46 -9 64 -20 18 -11 44 -20 59 -20
15 0 34 -7 44 -16 9 -8 43 -22 76 -31 32 -8 80 -26 106 -39 27 -13 62 -24 78
-24 16 0 48 -9 69 -20 22 -11 40 -18 40 -15 0 3 20 -6 45 -21 30 -17 55 -25
71 -21 14 2 47 -4 74 -14 26 -10 50 -16 53 -13 2 3 22 -2 43 -10 59 -23 234
-66 271 -66 18 0 56 -9 85 -19 29 -10 71 -22 93 -25 22 -3 60 -10 85 -15 25
-5 70 -14 100 -20 30 -5 109 -22 175 -37 66 -14 145 -30 175 -36 54 -9 67 -14
59 -22 -2 -2 -87 -11 -189 -20 -131 -11 -205 -13 -255 -7 -96 13 -279 48 -340
65 -112 32 -185 57 -191 67 -4 6 -20 8 -40 5 -24 -5 -45 -1 -75 14 -25 13 -50
19 -64 16 -16 -4 -33 2 -53 19 -17 14 -35 25 -41 25 -24 0 -121 42 -121 53 -1
29 -16 38 -42 27 -22 -10 -31 -8 -65 13 -49 31 -128 58 -146 51 -8 -3 -22 3
-32 13 -25 25 -63 43 -90 43 -13 0 -25 6 -28 14 -3 8 -19 17 -36 21 -17 4 -33
11 -36 16 -4 5 -13 9 -22 9 -8 0 -53 18 -99 40 -47 22 -93 40 -104 40 -11 0
-34 14 -52 30 -17 17 -38 30 -46 30 -13 0 -59 34 -107 80 -11 10 -32 22 -47
25 -16 4 -28 16 -32 29 -3 14 -20 27 -48 37 -36 13 -45 22 -56 55 -7 21 -22
49 -34 61 -20 21 -20 23 -2 65 l18 44 105 -107 c58 -59 115 -108 126 -110z
m4855 137 c0 -8 -151 -88 -156 -83 -3 2 30 23 73 45 84 45 83 44 83 38z m1309
-73 c-30 -31 -63 -67 -74 -79 -102 -115 -160 -172 -167 -168 -4 3 -8 -1 -8 -8
0 -15 -66 -77 -101 -96 -14 -7 -47 -33 -74 -56 -27 -24 -54 -42 -60 -39 -6 2
-22 -7 -36 -19 -31 -31 -144 -103 -190 -122 -20 -8 -74 -38 -120 -66 -46 -27
-90 -50 -98 -50 -8 0 -59 -22 -115 -49 -56 -26 -111 -51 -124 -55 -12 -4 -27
-16 -32 -27 -6 -11 -21 -19 -36 -19 -14 0 -38 -6 -52 -14 -31 -16 -119 -46
-212 -71 -36 -9 -76 -21 -90 -25 -14 -5 -43 -11 -65 -15 -22 -4 -60 -15 -85
-25 -25 -10 -85 -26 -135 -35 -87 -16 -117 -22 -295 -64 -118 -28 -407 -83
-455 -86 -22 -2 -105 -17 -185 -35 -80 -17 -172 -35 -205 -40 -33 -4 -155 -22
-270 -39 -235 -34 -446 -43 -680 -30 -225 13 -282 19 -465 49 -36 5 -123 19
-195 30 -71 11 -167 27 -212 34 -51 9 -95 11 -118 6 -29 -6 -44 -3 -81 16 -25
13 -56 24 -68 24 -13 0 -29 7 -36 15 -7 9 -29 15 -51 15 -26 0 -39 5 -39 13 0
8 -24 18 -62 25 -35 7 -76 15 -93 18 -16 4 -38 13 -47 22 -10 8 -34 16 -55 18
-20 2 -59 14 -87 28 -48 23 -178 51 -207 45 -8 -2 -44 12 -81 30 -53 26 -68
39 -68 56 0 22 -91 105 -116 105 -34 0 -64 24 -64 51 0 26 -2 27 -40 22 -31
-4 -40 -2 -40 9 0 20 -25 41 -80 69 -59 30 -220 158 -220 175 0 7 -9 16 -20
19 -14 4 -20 15 -20 36 l0 29 53 -41 c28 -23 55 -50 59 -60 4 -11 12 -19 18
-19 7 0 30 -15 53 -34 49 -39 79 -56 101 -56 8 0 26 -11 40 -24 25 -23 135
-66 169 -66 9 0 20 -7 25 -16 5 -9 27 -20 48 -25 100 -21 171 -42 191 -55 12
-8 31 -14 43 -14 11 0 30 -11 42 -25 12 -14 31 -25 42 -25 32 0 129 -39 149
-60 9 -11 36 -24 60 -30 23 -5 61 -20 85 -32 23 -11 57 -21 75 -20 17 0 39 -6
48 -14 8 -7 37 -18 62 -23 26 -4 53 -13 60 -19 36 -30 258 -90 360 -97 15 -1
37 -7 50 -13 28 -13 295 -52 402 -58 44 -3 86 -7 93 -9 8 -3 89 -8 180 -11 92
-3 192 -7 222 -10 71 -5 61 -5 225 -4 124 0 236 10 465 41 36 5 101 13 145 18
90 10 146 21 320 61 66 16 165 36 220 45 55 9 120 22 145 30 186 57 266 78
301 80 22 1 45 7 52 14 6 6 26 11 44 11 17 0 36 6 40 13 4 7 57 25 118 41 60
15 122 34 137 42 15 8 37 14 50 14 13 0 38 9 56 20 18 11 45 20 61 20 16 0 34
7 41 15 7 9 20 13 27 10 18 -6 112 23 134 41 8 8 24 14 35 14 11 0 30 7 43 17
13 9 40 20 60 24 123 27 143 35 157 62 8 15 26 29 39 32 14 3 36 7 50 10 13 3
36 16 51 30 14 13 42 29 62 36 53 17 167 76 182 94 17 20 126 75 150 75 16 0
19 5 14 29 -5 26 -2 32 26 46 18 9 46 15 62 13 22 -4 28 -1 24 9 -7 17 37 63
58 63 9 0 27 18 41 40 14 22 36 42 50 46 16 4 25 13 25 25 0 10 3 19 8 19 4 0
28 20 54 45 71 67 93 57 27 -12z m-1159 -11 c0 -19 -262 -133 -276 -120 -2 3
58 32 134 65 75 33 138 61 140 62 1 0 2 -3 2 -7z m-555 -92 c-3 -5 -14 -10
-23 -10 -10 0 -33 -9 -53 -19 -58 -31 -319 -110 -384 -115 l-60 -6 60 20 c33
11 65 20 71 20 6 0 28 11 48 25 20 14 49 25 63 25 25 0 47 5 193 49 75 23 94
25 85 11z m-23 -196 c-58 -27 -111 -42 -99 -28 9 10 125 52 142 52 6 0 -14
-10 -43 -24z m-726 -41 c-1 -2 -43 -10 -92 -19 -49 -9 -94 -20 -100 -25 -6 -5
-32 -6 -57 -3 -29 4 -58 2 -77 -6 -23 -10 -34 -10 -43 -1 -6 6 -26 11 -43 11
-18 0 -36 5 -39 10 -4 6 11 10 37 10 24 0 54 6 68 13 16 8 79 12 187 12 89 1
161 0 159 -2z m-1461 -27 c33 -3 76 -10 95 -16 19 -5 52 -10 72 -10 43 0 63
-19 21 -21 -105 -4 -293 10 -344 26 -9 3 -16 11 -16 18 0 13 57 14 172 3z
m1970 -104 c-120 -47 -269 -85 -440 -112 -38 -6 -99 -17 -135 -26 -88 -19
-191 -34 -275 -39 -38 -2 -92 -9 -120 -15 -27 -7 -129 -18 -225 -26 -96 -7
-192 -18 -213 -24 -45 -13 -348 -12 -482 2 -110 11 -315 48 -335 60 -9 5 75 5
195 1 229 -9 585 -9 680 -1 33 3 112 13 175 22 63 9 170 23 238 30 68 7 128
18 135 25 6 6 23 11 38 11 14 0 62 9 105 20 44 11 94 20 112 20 18 0 43 5 55
12 27 14 173 36 287 44 47 3 121 9 165 13 44 4 87 9 95 9 8 1 -16 -11 -55 -26z
m-4516 -233 c93 -88 145 -123 170 -116 13 3 31 -9 60 -40 24 -25 55 -46 71
-50 19 -3 36 -17 49 -39 16 -27 27 -34 52 -34 17 0 43 -8 57 -18 53 -36 210
-111 248 -118 22 -3 48 -14 59 -24 11 -9 31 -17 44 -18 13 0 41 -13 63 -27 21
-14 50 -30 63 -35 14 -5 25 -14 25 -19 0 -5 28 -23 63 -39 91 -43 116 -53 177
-68 30 -8 89 -30 130 -49 109 -49 347 -115 550 -151 52 -9 120 -23 150 -30 30
-8 154 -25 275 -39 195 -23 258 -26 559 -25 349 0 490 5 586 19 30 5 93 10
140 11 46 1 89 4 94 8 6 3 26 5 46 4 19 -2 78 1 130 6 52 5 122 6 155 2 56 -6
58 -7 33 -18 -34 -14 -221 -42 -284 -42 -54 0 -291 -34 -341 -49 -17 -5 -40
-14 -50 -20 -17 -10 -17 -10 2 -11 11 0 56 4 100 10 89 11 167 16 365 23 74 3
155 8 180 11 56 8 -305 -87 -420 -110 -96 -19 -97 -19 -235 -33 -55 -5 -122
-15 -149 -21 -80 -18 -399 -31 -591 -25 -356 12 -529 30 -637 68 -32 11 -36
15 -24 28 14 14 20 32 17 56 -1 15 -98 66 -111 58 -5 -3 -23 3 -40 14 -17 10
-40 17 -50 14 -10 -3 -30 3 -45 13 -15 10 -51 18 -83 20 -62 4 -170 25 -216
43 -16 6 -31 9 -34 6 -3 -3 -12 1 -21 9 -16 14 -160 66 -184 66 -7 0 -18 9
-25 20 -7 12 -23 20 -41 20 -15 0 -35 8 -44 18 -9 10 -39 25 -67 32 -28 8 -56
20 -62 27 -6 7 -24 13 -40 13 -16 0 -31 6 -34 14 -3 8 -24 22 -46 31 -23 9
-52 25 -66 36 -14 10 -35 19 -47 19 -14 0 -26 9 -33 25 -9 19 -19 25 -45 25
-21 0 -41 7 -51 19 -10 11 -25 17 -35 14 -17 -4 -86 33 -119 64 -7 7 -22 13
-32 13 -10 0 -25 12 -35 26 -13 20 -22 24 -44 19 -23 -5 -29 -1 -39 20 -7 16
-23 28 -41 31 -21 5 -33 15 -40 35 -8 24 -16 29 -43 29 -38 0 -52 8 -61 32 -3
10 -28 27 -54 40 -26 12 -63 33 -81 47 -73 57 -82 69 -82 106 0 35 14 75 26
75 4 0 41 -32 83 -71z m6693 14 c-50 -60 -90 -98 -97 -91 -6 5 128 147 134
142 2 -2 -15 -25 -37 -51z m-746 32 c-11 -8 -52 -34 -90 -57 -39 -22 -97 -58
-128 -80 -59 -40 -268 -142 -275 -134 -3 3 30 24 72 48 42 24 110 63 152 88
42 25 87 51 102 59 14 8 49 28 76 46 54 35 72 43 95 44 11 0 10 -3 -4 -14z
m-2421 -96 c-27 -5 -85 -16 -127 -24 -64 -13 -89 -13 -143 -4 -36 7 -63 15
-60 17 11 11 87 17 230 19 119 1 140 0 100 -8z m2425 -37 c0 -11 -143 -91
-245 -137 -113 -51 -72 -19 70 56 66 34 129 68 140 76 22 15 35 17 35 5z m631
-20 c-15 -27 -49 -54 -63 -50 -9 3 -2 15 19 36 35 35 60 43 44 14z m-6646 -62
c11 -21 27 -32 55 -40 23 -6 44 -20 51 -33 19 -35 90 -92 123 -97 23 -4 36
-15 53 -46 18 -32 32 -43 64 -53 29 -9 46 -22 61 -47 17 -29 25 -34 59 -34 28
0 39 -4 39 -15 0 -8 6 -15 14 -15 8 0 22 -7 30 -16 9 -8 33 -18 53 -21 21 -4
44 -15 51 -25 7 -10 22 -18 32 -18 10 0 45 -15 77 -34 32 -18 79 -45 106 -60
26 -15 47 -31 47 -37 0 -5 12 -9 28 -8 34 2 120 -35 128 -56 4 -10 20 -15 47
-15 29 0 49 -7 66 -23 15 -13 58 -33 97 -45 40 -13 77 -29 84 -37 7 -8 27 -15
45 -15 45 0 92 -18 148 -56 28 -20 67 -36 95 -40 48 -7 93 -24 62 -23 -86 1
-331 50 -357 71 -7 6 -20 8 -28 4 -9 -3 -50 6 -93 19 -42 14 -85 25 -94 25 -9
0 -30 11 -46 25 -17 14 -38 25 -49 25 -10 0 -29 7 -41 16 -12 8 -46 23 -74 32
-53 16 -62 19 -84 21 -7 0 -15 12 -18 26 -4 17 -13 25 -29 25 -25 0 -115 40
-157 70 -15 11 -35 20 -44 20 -18 0 -104 55 -126 81 -8 9 -34 24 -58 31 -24 8
-53 23 -64 33 -12 9 -39 29 -62 44 -60 38 -146 103 -185 140 -18 17 -36 31
-40 31 -14 0 -131 127 -141 153 -13 36 -6 47 30 47 23 0 33 -7 45 -30z m6215
23 c0 -10 -99 -82 -151 -110 -23 -13 -55 -23 -71 -23 -24 0 -16 7 48 41 43 22
96 53 118 69 42 30 56 36 56 23z m358 -45 c-9 -13 -24 -25 -34 -27 -25 -4 -54
-30 -54 -48 0 -7 -5 -13 -11 -13 -6 0 -28 -14 -48 -31 -63 -53 -131 -99 -146
-99 -8 0 -22 -11 -30 -24 -9 -13 -30 -30 -48 -37 -18 -7 -51 -25 -75 -41 -24
-15 -46 -28 -49 -28 -3 0 -22 -13 -42 -29 -31 -25 -92 -57 -331 -177 -113 -56
-287 -125 -365 -145 -59 -14 -168 -50 -245 -80 -51 -20 -141 -50 -250 -85 -25
-8 -58 -14 -75 -14 -16 0 -41 -6 -55 -13 -14 -7 -52 -19 -85 -26 -33 -7 -89
-21 -125 -31 -106 -28 -202 -52 -255 -64 -27 -6 -55 -14 -61 -18 -6 -4 -48
-12 -95 -18 -46 -6 -115 -17 -154 -25 -38 -8 -86 -15 -105 -15 -19 0 -51 -5
-70 -11 -19 -6 -71 -12 -115 -14 -44 -2 -105 -9 -135 -16 -30 -7 -73 -12 -95
-12 -22 1 -62 -3 -90 -7 -100 -18 -537 -28 -665 -16 -30 3 -183 10 -340 16
-157 5 -310 13 -340 16 -30 4 -77 6 -105 5 -27 -1 -77 4 -110 10 -33 6 -87 12
-120 14 -94 4 -194 24 -257 51 -31 13 -66 24 -76 24 -18 0 -82 23 -159 56 -17
8 -45 14 -63 14 -18 0 -45 11 -64 25 -18 14 -42 25 -54 25 -11 0 -23 4 -27 9
-8 13 -150 81 -169 81 -9 0 -16 4 -16 10 0 5 -19 15 -42 21 -24 7 -58 26 -75
42 -23 21 -43 31 -68 31 -19 1 -35 5 -35 10 0 20 -45 56 -70 56 -16 0 -37 12
-56 31 -16 17 -56 44 -89 60 -33 17 -78 47 -100 68 -22 21 -63 52 -91 70 -28
17 -73 55 -100 84 -27 29 -60 61 -74 70 -21 15 -26 27 -30 87 -3 39 -2 70 2
70 10 0 89 -92 101 -118 6 -12 21 -25 34 -28 12 -4 29 -18 35 -33 7 -14 28
-33 45 -41 18 -8 33 -23 33 -32 0 -22 102 -88 135 -88 19 0 34 -12 57 -45 27
-38 37 -45 65 -45 24 0 38 -7 55 -30 12 -16 28 -30 35 -30 7 0 22 -9 33 -20
16 -16 25 -18 45 -10 35 13 35 13 35 -14 0 -19 6 -24 35 -29 21 -3 45 -18 63
-38 26 -29 39 -34 100 -38 12 0 32 -12 44 -26 15 -18 32 -25 57 -25 20 0 54
-11 76 -25 22 -14 54 -25 71 -25 16 0 45 -11 63 -25 34 -24 49 -28 241 -64
622 -117 946 -151 1454 -154 182 -1 369 2 416 8 47 5 110 8 140 7 30 -1 73 2
95 7 22 5 72 14 110 20 187 28 368 54 448 63 48 6 87 14 87 18 0 4 21 11 48
15 58 8 241 51 302 70 25 8 70 17 100 21 30 4 62 13 70 20 9 7 47 16 85 20 39
3 85 15 103 25 18 11 46 19 62 19 31 0 80 19 80 30 0 4 19 11 43 14 23 4 58
16 77 28 19 12 48 20 63 19 15 -1 44 7 63 18 21 13 53 21 79 21 30 0 63 10
109 35 37 19 71 35 77 35 6 0 25 6 42 14 18 8 49 22 69 30 21 8 55 29 76 46
22 17 43 30 49 28 11 -4 129 46 208 89 17 9 53 27 80 41 28 14 61 35 75 47 14
13 43 30 64 39 21 9 58 34 82 56 24 22 48 40 54 40 21 0 128 81 133 100 3 11
13 20 24 20 10 0 36 11 58 25 53 32 73 33 53 3z m-2123 -274 c-38 -14 -81 -29
-95 -33 -14 -5 -61 -26 -105 -48 -127 -64 -382 -141 -430 -131 -11 2 20 14 69
26 49 12 103 32 120 45 17 13 74 39 126 57 52 18 145 50 205 71 61 21 126 39
145 39 31 0 27 -3 -35 -26z m-4375 -160 c62 -41 180 -142 180 -154 0 -4 -9
-10 -21 -13 -15 -4 -36 7 -74 38 -30 24 -70 49 -90 56 -22 8 -38 22 -41 35 -3
13 -14 30 -25 40 -51 46 0 45 71 -2z m4609 21 c-14 -13 -315 -104 -379 -114
-150 -23 -140 -23 -99 -1 21 11 66 26 100 34 35 8 89 23 119 34 77 29 276 65
259 47z m1586 -43 c-15 -13 -237 -158 -262 -171 -48 -25 -267 -110 -272 -106
-2 3 56 34 130 70 142 69 367 189 383 205 6 6 15 10 20 10 6 0 6 -3 1 -8z
m-155 -230 c0 -5 -55 -34 -122 -66 -68 -32 -154 -73 -193 -92 -64 -32 -175
-68 -175 -58 0 3 33 20 73 39 39 19 87 46 106 60 19 14 46 25 60 25 14 0 76
22 136 49 61 27 111 50 113 50 1 1 2 -3 2 -7z m-1515 -31 c-13 -12 -154 -41
-197 -41 -52 1 -14 17 78 34 97 17 131 19 119 7z m-4499 -62 c31 -35 121 -89
148 -89 17 0 34 -11 51 -35 32 -41 173 -125 211 -125 15 0 41 -13 60 -30 19
-16 59 -37 89 -46 31 -8 61 -24 68 -35 6 -10 20 -19 30 -19 10 0 36 -10 59
-22 29 -16 42 -19 45 -11 3 8 18 2 45 -17 47 -35 137 -70 177 -70 16 0 34 -7
41 -15 7 -8 20 -15 30 -15 10 0 37 -7 61 -15 44 -16 61 -20 134 -31 22 -4 49
-13 60 -20 12 -8 75 -23 140 -34 66 -11 134 -25 150 -30 48 -15 196 -40 205
-35 4 3 34 -4 66 -14 130 -42 455 -54 974 -37 129 4 257 12 284 17 27 5 51 7
54 4 7 -7 -45 -25 -72 -25 -12 0 -60 -9 -107 -20 -167 -40 -196 -45 -374 -64
-27 -3 -66 -10 -85 -14 -39 -10 -65 -6 224 -34 162 -15 137 -23 -100 -32 -220
-9 -727 21 -759 44 -5 4 -38 11 -73 15 -34 4 -64 10 -67 15 -2 4 -15 5 -27 3
-31 -6 -173 29 -234 57 -48 22 -103 36 -174 44 -99 11 -135 18 -159 30 -37 19
-114 36 -164 36 -30 0 -53 7 -77 25 -19 14 -46 25 -61 25 -16 0 -40 11 -55 25
-18 16 -39 25 -60 25 -23 0 -38 6 -46 20 -7 11 -23 20 -35 20 -12 0 -41 13
-65 29 -24 16 -64 32 -90 36 -42 6 -48 10 -48 31 0 17 -6 24 -20 24 -38 0
-105 34 -133 67 -20 23 -40 35 -66 39 -47 8 -53 12 -69 47 -8 19 -22 29 -43
34 -19 3 -35 15 -41 29 -12 26 -23 30 -33 14 -12 -19 -31 -10 -42 20 -7 19
-18 30 -31 30 -13 0 -24 13 -35 40 -9 23 -22 40 -31 40 -16 0 -21 25 -10 54 9
23 58 20 80 -5z m5374 -43 c0 -3 -26 -18 -59 -34 -37 -19 -68 -27 -87 -25 -30
5 -157 -36 -209 -67 -16 -10 -59 -23 -95 -29 -36 -6 -99 -22 -140 -35 -41 -13
-95 -27 -120 -31 -25 -4 -56 -13 -70 -20 -28 -13 -127 -37 -235 -56 -38 -6
-104 -20 -145 -31 -41 -10 -101 -19 -133 -19 -31 0 -74 -7 -95 -16 -20 -8 -70
-19 -111 -24 -40 -5 -79 -13 -86 -19 -7 -6 -19 -8 -26 -5 -8 3 -37 -2 -64 -10
-51 -17 -93 -24 -275 -49 -268 -36 -323 -40 -745 -52 -277 -7 -356 -6 -407 4
-26 5 -59 7 -73 4 -15 -2 -36 0 -48 6 -12 6 -47 13 -77 15 -30 3 -95 14 -145
24 l-90 20 56 7 c30 4 138 3 240 -3 101 -6 195 -11 209 -12 188 -7 703 0 840
12 63 5 144 11 180 13 36 2 82 11 104 20 22 9 66 16 101 16 36 0 111 13 180
30 65 17 133 30 151 30 18 0 59 7 91 16 166 45 247 63 267 58 12 -3 60 8 106
25 51 17 116 32 160 35 47 3 100 15 140 32 38 15 90 27 125 29 33 2 128 22
210 45 83 23 177 48 210 55 33 8 76 21 95 29 33 15 70 21 70 12z m575 -111
c-43 -35 -187 -115 -209 -115 -7 0 -31 -12 -52 -26 -21 -15 -55 -31 -74 -37
-19 -5 -48 -19 -65 -31 -16 -11 -45 -21 -63 -22 -18 -1 -42 -10 -53 -20 -12
-10 -29 -18 -39 -16 -10 2 -36 -4 -57 -13 -53 -23 -119 -44 -175 -55 -26 -5
-67 -19 -90 -30 -46 -23 -120 -41 -263 -66 -49 -9 -132 -24 -184 -35 -88 -17
-130 -19 -85 -3 10 4 52 20 92 36 40 15 84 28 98 28 14 0 38 7 53 15 16 8 49
14 73 13 24 0 58 7 75 15 16 9 39 13 51 11 12 -4 35 4 58 20 21 14 45 26 54
26 8 0 35 10 60 21 25 12 59 21 77 20 18 0 39 6 47 14 8 8 26 15 41 15 35 0
86 23 109 49 11 12 31 21 46 21 15 0 39 10 54 21 20 16 35 20 57 15 33 -6 71
9 127 52 18 14 61 31 99 39 64 13 144 51 158 74 4 6 10 8 13 4 4 -3 -11 -21
-33 -40z m-5810 -205 c17 -15 42 -30 57 -34 14 -3 39 -17 55 -30 16 -14 55
-36 86 -50 31 -14 57 -30 57 -35 0 -12 60 -39 105 -48 17 -4 53 -26 81 -50 38
-31 60 -43 84 -43 18 0 49 -9 69 -19 20 -11 69 -31 109 -46 46 -17 72 -32 72
-42 0 -12 7 -14 35 -9 21 4 44 2 57 -6 13 -6 49 -15 82 -19 32 -4 70 -16 85
-26 16 -13 51 -22 93 -26 38 -3 77 -11 88 -17 10 -6 61 -19 112 -29 51 -11
106 -24 121 -30 16 -6 47 -11 70 -11 23 0 96 -12 162 -26 66 -15 135 -29 153
-31 51 -8 46 -20 -10 -27 -28 -4 -64 -14 -80 -22 -27 -14 -32 -13 -62 5 -18
12 -50 21 -72 21 -37 0 -116 12 -204 31 -25 6 -62 10 -83 9 -22 0 -45 4 -53
11 -8 7 -27 9 -47 5 -24 -5 -49 0 -88 17 -47 21 -109 39 -174 51 -54 10 -112
29 -126 42 -8 8 -38 18 -65 24 -27 6 -62 13 -78 17 -17 3 -41 19 -54 35 -14
16 -32 28 -41 26 -16 -3 -112 30 -121 42 -3 3 -21 12 -40 20 -19 8 -47 27 -63
43 -22 23 -30 27 -41 18 -11 -10 -16 -9 -23 3 -4 8 -33 27 -63 42 -30 15 -61
36 -68 46 -7 10 -25 18 -41 18 -21 0 -30 6 -34 21 -5 17 -11 19 -40 14 -29 -6
-36 -3 -51 20 -11 17 -24 25 -38 23 -16 -2 -24 5 -31 27 -11 34 -36 67 -47 60
-4 -2 -14 1 -23 8 -11 9 -13 18 -6 35 l9 23 47 -27 c27 -15 62 -39 78 -54z
m6360 25 c-28 -25 -79 -60 -115 -79 -36 -18 -90 -47 -120 -65 -30 -17 -80 -43
-110 -57 -30 -13 -80 -37 -110 -53 -30 -15 -68 -35 -85 -43 -16 -9 -45 -21
-62 -27 -18 -6 -48 -16 -65 -22 -18 -6 -55 -20 -83 -31 -56 -23 -107 -36 -310
-78 -128 -27 -315 -54 -322 -47 -1 2 32 11 75 21 42 10 102 26 132 36 30 10
75 22 100 25 25 4 59 15 75 25 18 11 48 19 73 18 23 0 53 7 68 16 14 10 60 26
102 37 42 11 87 30 100 42 16 15 33 20 65 19 32 -2 55 5 96 30 29 18 63 39 75
45 11 7 33 13 48 13 17 0 33 9 45 26 14 18 33 28 69 35 35 6 57 18 76 39 22
24 36 30 67 30 31 0 51 9 97 45 74 58 82 58 19 0z m-1660 -65 c-253 -84 -268
-88 -332 -93 -49 -4 -63 -2 -67 10 -8 20 1 33 25 33 11 0 68 11 127 24 59 14
141 32 182 40 41 8 95 19 120 24 106 22 85 8 -55 -38z m-785 -125 c0 -3 -17
-12 -37 -21 -81 -34 -150 -47 -255 -48 -106 -1 -140 8 -75 19 101 17 231 33
241 29 6 -2 34 3 61 10 58 17 65 18 65 11z m367 -1 c-3 -3 -12 -4 -19 -1 -8 3
-5 6 6 6 11 1 17 -2 13 -5z m-50 -10 c-3 -3 -12 -4 -19 -1 -8 3 -5 6 6 6 11 1
17 -2 13 -5z m-80 -20 c-3 -3 -12 -4 -19 -1 -8 3 -5 6 6 6 11 1 17 -2 13 -5z
m1103 -45 c-25 -11 -52 -26 -60 -33 -15 -13 -140 -56 -163 -56 -6 0 -25 -7
-42 -16 -16 -8 -52 -18 -80 -21 -27 -4 -69 -14 -91 -24 -23 -9 -77 -27 -120
-39 -44 -12 -85 -27 -92 -33 -8 -6 -30 -10 -49 -9 -19 2 -62 -6 -94 -18 -33
-11 -72 -20 -87 -20 -15 0 -52 -7 -82 -16 -66 -19 -197 -39 -385 -59 -118 -13
-184 -24 -204 -35 -17 -9 -26 -9 -37 1 -9 8 -27 9 -52 4 -20 -4 -71 -9 -112
-10 -41 -1 -118 -7 -170 -12 -96 -10 -380 3 -380 17 0 8 117 19 275 26 61 3
117 7 125 10 8 4 65 10 125 15 61 4 157 13 215 20 58 6 132 13 165 14 33 1 85
7 115 13 30 6 87 15 125 21 39 6 83 16 99 21 16 6 46 10 66 10 21 0 55 8 76
17 22 9 66 20 99 23 61 7 136 23 190 42 17 6 44 12 60 15 17 2 59 13 95 23 36
11 91 24 122 30 31 6 62 18 68 26 7 7 29 14 49 14 20 0 83 13 141 29 123 34
153 38 90 10z m-5110 -133 c22 -14 45 -26 52 -26 7 0 29 -18 49 -40 29 -31 44
-40 70 -40 19 0 45 -9 59 -20 14 -11 34 -20 46 -20 11 0 29 -7 40 -15 10 -8
33 -15 50 -15 18 0 38 -8 49 -20 9 -10 38 -27 64 -36 25 -10 53 -23 62 -31 8
-7 23 -13 31 -13 9 0 36 -8 60 -19 39 -16 89 -28 213 -50 23 -4 46 -10 52 -14
11 -7 73 -17 228 -38 79 -11 98 -13 183 -23 24 -2 49 -9 55 -14 22 -17 80 -23
322 -37 367 -20 1154 -3 1190 26 6 4 17 4 25 -1 8 -5 26 -7 40 -4 48 8 106 13
225 19 66 4 127 9 135 12 8 3 53 10 100 15 47 5 123 13 170 18 47 6 153 12
235 15 l150 5 -70 -26 c-41 -14 -85 -24 -106 -22 -20 2 -41 -2 -48 -9 -6 -7
-26 -13 -44 -13 -18 0 -50 -5 -72 -11 -40 -10 -174 -31 -315 -49 -41 -6 -122
-13 -180 -15 -58 -3 -114 -8 -125 -10 -12 -2 -126 -7 -255 -10 -129 -3 -266
-10 -305 -15 -38 -5 -90 -9 -115 -9 -95 1 -248 -12 -319 -27 -88 -18 -383 -22
-451 -6 -38 9 -332 29 -352 24 -21 -5 -262 57 -292 76 -6 3 -15 7 -21 7 -5 0
-38 4 -72 9 -48 6 -62 12 -66 27 -4 13 -14 19 -35 19 -17 0 -33 4 -36 9 -6 9
-95 23 -138 22 -19 -1 -34 7 -49 29 -16 20 -31 30 -49 30 -15 0 -37 9 -50 20
-14 12 -31 18 -44 14 -16 -4 -27 3 -44 25 -12 17 -31 31 -41 31 -10 0 -32 7
-47 15 -16 8 -45 15 -64 15 -31 0 -37 4 -47 31 -10 26 -16 30 -44 27 -27 -3
-34 2 -48 29 -9 18 -24 33 -33 33 -9 0 -24 17 -35 39 -10 22 -28 44 -40 50
-36 17 -25 47 23 60 23 6 30 4 32 -10 2 -9 21 -29 42 -43z m3240 -37 c-38 -10
-236 -22 -228 -13 12 11 98 22 178 22 71 0 79 -2 50 -9z m1490 -220 c-105 -25
-248 -39 -330 -31 l-85 8 135 8 c74 4 155 11 180 16 25 4 65 8 90 8 l45 0 -35
-9z m-4513 -140 c64 -28 124 -49 134 -46 13 4 26 -4 40 -24 26 -37 38 -43 140
-73 135 -40 316 -105 294 -105 -40 -1 -221 36 -250 52 -17 8 -62 25 -100 38
-39 12 -94 36 -124 52 -35 20 -68 30 -97 31 -29 1 -44 5 -44 14 0 18 -62 42
-88 35 -18 -4 -22 -1 -22 16 0 12 -5 31 -10 42 -16 29 -2 25 127 -32z m5518
-19 c14 -22 -174 -120 -231 -120 -12 0 -64 -20 -115 -44 -52 -24 -117 -49
-146 -55 -29 -6 -92 -26 -140 -44 -96 -36 -315 -92 -403 -102 -30 -3 -82 -13
-115 -21 -33 -8 -69 -17 -80 -20 -20 -5 -20 -5 -1 10 11 9 27 16 36 16 10 0
38 11 64 25 26 14 58 25 71 25 14 0 42 6 62 14 21 8 57 16 80 19 23 3 73 18
110 35 37 16 95 35 128 41 33 6 73 21 89 33 23 16 47 22 104 25 67 3 108 14
122 33 3 4 32 19 65 34 44 20 69 26 92 21 25 -4 44 0 76 20 24 14 51 25 59 25
9 0 26 9 39 20 28 23 26 22 34 10z m-1715 -71 c-62 -25 -282 -82 -348 -90 -40
-5 -81 -13 -90 -18 -10 -5 -105 -17 -212 -26 -107 -9 -229 -21 -270 -26 -41
-5 -142 -14 -225 -19 -82 -6 -208 -17 -279 -25 -112 -12 -131 -12 -150 0 -13
10 -46 15 -93 15 -39 0 -75 5 -78 10 -3 6 -21 10 -38 11 l-32 1 35 9 c33 8
165 17 565 39 195 11 334 24 405 40 25 5 126 19 225 30 99 11 216 24 260 30
111 14 251 27 305 28 40 1 42 0 20 -9z m390 -113 c0 -21 -361 -96 -462 -96
-68 0 -40 16 60 34 53 10 115 24 137 32 22 7 85 18 140 22 55 5 106 10 113 11
6 0 12 -1 12 -3z m-3924 -141 c27 -8 108 -35 179 -60 73 -25 140 -43 152 -40
12 3 37 -3 55 -14 48 -27 136 -54 159 -48 10 3 21 2 24 -3 3 -4 31 -11 62 -14
32 -4 72 -11 88 -16 17 -5 64 -16 105 -25 41 -9 80 -21 86 -26 26 -21 238 -65
364 -74 41 -3 102 -12 135 -20 74 -17 263 -35 427 -40 68 -2 136 -8 152 -14
53 -21 1072 -2 1336 24 85 9 192 19 237 23 45 4 88 13 95 20 6 6 27 12 44 12
18 0 45 5 61 11 48 18 225 61 230 55 3 -3 28 4 57 14 28 11 63 20 78 20 15 0
51 9 80 20 29 11 61 20 70 20 32 0 228 61 280 87 28 14 72 28 97 30 l46 3 -54
-20 c-29 -11 -59 -24 -65 -29 -6 -5 -108 -41 -226 -79 -118 -39 -238 -79 -267
-91 -28 -11 -82 -25 -120 -32 -37 -6 -79 -18 -93 -25 -23 -13 -153 -42 -290
-65 -30 -5 -68 -15 -85 -22 -33 -13 -46 -15 -185 -22 -52 -2 -106 -7 -120 -11
-14 -4 -101 -7 -195 -7 -93 0 -182 -3 -197 -8 -34 -9 -420 -13 -548 -5 -52 4
-162 8 -245 10 -82 2 -162 7 -177 11 -15 4 -36 2 -48 -5 -16 -8 -29 -9 -48 -1
-15 5 -64 12 -109 14 -45 3 -87 8 -93 12 -6 4 -54 8 -106 9 -52 2 -97 6 -101
9 -3 4 -27 7 -52 7 -25 0 -64 5 -86 11 -22 6 -78 17 -125 25 -165 26 -220 39
-236 56 -11 11 -27 14 -55 11 -25 -4 -51 0 -74 11 -20 10 -44 14 -55 11 -23
-7 -77 8 -132 36 -20 10 -49 19 -64 19 -15 0 -36 8 -47 18 -13 11 -35 17 -71
17 -29 0 -55 5 -61 12 -5 7 -50 26 -100 42 -109 35 -178 66 -195 86 -7 8 -20
15 -30 15 -20 0 -30 19 -30 57 0 25 1 25 18 9 11 -9 41 -23 68 -31z m3764 -19
c-43 -22 -217 -86 -325 -119 -27 -9 -75 -19 -105 -23 -30 -4 -65 -10 -76 -15
-12 -4 -37 -4 -56 0 -19 5 -60 5 -92 0 -58 -8 -355 -23 -411 -22 -16 1 -147 3
-290 5 -276 5 -378 14 -372 32 3 8 117 13 370 18 276 6 374 11 399 21 23 10
41 11 58 5 14 -5 44 -5 74 1 68 13 304 33 315 27 4 -3 33 -1 62 4 30 6 113 19
184 30 72 11 164 29 205 39 100 26 114 25 60 -3z m-2065 -132 c138 -12 185
-20 185 -29 0 -6 -67 -10 -183 -9 -212 1 -243 4 -277 21 -14 7 -40 13 -57 13
-18 0 -33 4 -33 8 0 9 255 6 365 -4z m2425 -253 c-79 -49 -261 -113 -278 -97
-9 10 16 24 63 37 89 23 172 51 205 69 54 29 61 23 10 -9z m-3560 -51 c63 -18
129 -39 147 -46 17 -8 78 -21 135 -29 57 -9 141 -25 188 -36 47 -11 103 -24
125 -29 36 -9 235 -25 630 -51 208 -14 269 -20 290 -32 26 -14 23 -14 -145
-23 -253 -12 -414 -11 -567 3 -81 7 -163 12 -180 9 -18 -3 -35 0 -38 5 -4 5
-19 9 -34 9 -16 0 -47 6 -69 14 -22 8 -42 12 -45 9 -8 -8 -119 18 -146 35 -18
11 -25 11 -31 2 -6 -10 -24 -7 -76 10 -38 12 -74 29 -80 36 -6 8 -27 14 -46
14 -21 0 -47 10 -69 25 -19 14 -42 24 -52 21 -10 -2 -21 3 -27 14 -5 10 -23
21 -40 25 -31 7 -34 12 -24 40 4 9 14 15 23 12 9 -3 68 -20 131 -37z m3975
-97 c-11 -3 -27 -11 -35 -18 -8 -6 -40 -20 -70 -29 -30 -10 -80 -31 -110 -49
-30 -17 -72 -32 -92 -33 -20 -1 -51 -13 -70 -26 -19 -14 -50 -26 -73 -27 -22
-2 -46 -8 -53 -14 -8 -6 -29 -10 -48 -9 -19 2 -43 -2 -55 -8 -32 -18 -231 -72
-261 -72 -14 0 -29 -6 -32 -14 -3 -8 -18 -14 -35 -14 -29 0 -135 -21 -311 -61
-52 -12 -133 -25 -180 -29 -47 -4 -103 -12 -125 -18 -33 -9 -176 -14 -320 -11
-16 0 -54 0 -84 -1 -30 0 -88 6 -130 14 -42 8 -89 17 -106 19 -16 2 31 5 106
6 95 1 150 6 180 17 24 8 58 13 74 10 17 -3 54 -2 84 3 35 5 66 5 84 -2 21 -7
45 -6 85 3 53 12 177 28 252 34 51 3 142 26 166 41 12 8 37 12 60 9 25 -4 60
2 98 15 33 12 77 21 98 21 22 0 48 4 58 10 23 12 126 41 160 45 41 4 139 36
146 47 4 5 21 7 39 4 23 -5 56 1 103 18 38 13 88 27 111 31 23 4 54 17 69 29
15 13 44 26 64 29 21 3 50 12 65 20 16 8 46 15 68 15 22 0 31 -3 20 -5z m-965
-107 c0 -7 -99 -36 -124 -36 -14 0 -65 -11 -112 -25 -47 -14 -102 -25 -121
-25 -19 0 -47 -7 -63 -15 -19 -10 -31 -11 -35 -5 -4 6 -14 8 -23 6 -54 -17
-193 -33 -297 -35 -66 -1 -183 -6 -260 -12 -140 -12 -339 -6 -405 10 -19 5
-33 9 -30 10 75 17 368 38 600 44 137 4 256 16 300 30 19 6 60 12 90 13 95 3
224 20 245 32 18 10 235 18 235 8z m-2606 -157 c84 -16 216 -38 291 -49 39 -6
92 -17 118 -26 39 -13 46 -18 36 -30 -6 -8 -8 -14 -4 -14 5 0 6 -2 3 -5 -3 -3
-39 1 -79 9 -41 7 -114 20 -164 26 -49 7 -94 17 -100 21 -5 5 -21 9 -36 9 -27
0 -162 52 -186 71 -7 6 -13 18 -13 25 0 11 9 10 41 -7 23 -11 64 -25 93 -30z
m916 -165 c180 -10 282 -25 288 -42 3 -9 -12 -11 -65 -7 -124 10 -388 27 -408
27 -49 -1 -205 23 -205 31 0 9 91 7 390 -9z m1420 -70 c-52 -13 -108 -23 -125
-23 l-30 1 30 9 c87 28 134 38 175 37 40 0 34 -3 -50 -24z m-167 -31 c-7 -2
-19 -2 -25 0 -7 3 -2 5 12 5 14 0 19 -2 13 -5z"/>
<path d="M7165 5990 c3 -5 10 -10 16 -10 5 0 9 5 9 10 0 6 -7 10 -16 10 -8 0
-12 -4 -9 -10z"/>
<path d="M153 7565 c-68 -29 -71 -198 -5 -234 36 -19 89 -13 119 13 25 22 28
31 28 83 0 49 -5 66 -27 95 -35 46 -74 60 -115 43z"/>
<path d="M277 5938 c-46 -27 -87 -104 -87 -162 1 -96 70 -176 154 -176 149 0
257 154 190 271 -42 73 -184 110 -257 67z"/>
<path d="M9768 4143 c-37 -23 -40 -34 -42 -143 -2 -80 -7 -104 -29 -154 -44
-96 -208 -247 -450 -413 -38 -26 -47 -38 -47 -62 0 -28 3 -30 70 -45 169 -38
280 -108 362 -228 51 -77 73 -126 93 -215 l17 -73 64 0 c75 0 73 -2 99 121 36
172 130 303 260 360 l75 33 0 91 0 91 -69 67 c-125 120 -155 181 -171 348 -15
159 -33 193 -119 224 -55 19 -79 19 -113 -2z m52 -623 c7 -16 35 -62 62 -102
41 -59 47 -74 36 -83 -79 -59 -138 -110 -143 -123 -4 -12 -13 -5 -36 29 -66
97 -65 89 -10 174 27 41 52 89 56 105 8 38 19 38 35 0z"/>
<path d="M994 3455 c-7 -19 -14 -39 -14 -44 0 -12 -73 -227 -91 -266 -26 -56
-82 -150 -118 -193 -86 -106 -326 -231 -481 -250 -50 -6 -55 -9 -58 -34 -4
-36 52 -77 156 -113 42 -15 128 -51 190 -81 196 -95 263 -184 351 -469 22 -71
55 -179 74 -240 20 -66 40 -111 48 -113 35 -7 48 24 78 175 17 83 46 198 65
255 88 261 131 306 446 466 154 78 188 103 192 141 3 22 -2 25 -92 43 -118 24
-212 66 -312 140 -136 101 -179 171 -269 440 -28 84 -56 159 -61 166 -6 6 -28
12 -50 12 -35 0 -40 -3 -54 -35z m74 -674 c12 -21 42 -67 67 -100 l45 -61 -33
-48 c-80 -115 -92 -131 -99 -132 -5 0 -8 4 -8 9 0 5 -29 48 -64 96 l-65 88 44
57 c24 31 52 74 61 94 10 20 21 36 24 36 3 0 16 -18 28 -39z"/>
<path d="M8502 2620 c-100 -61 -149 -192 -106 -283 21 -44 61 -67 118 -67 179
0 294 264 153 350 -43 27 -121 26 -165 0z m118 -89 c17 -33 12 -96 -10 -122
l-20 -24 -25 28 c-27 31 -32 71 -13 112 14 30 53 34 68 6z"/>
<path d="M2493 1920 c-34 -14 -46 -47 -40 -110 7 -83 44 -151 90 -169 49 -18
103 -7 140 30 27 27 29 35 25 79 -11 115 -126 206 -215 170z"/>
<path d="M8144 1193 c-44 -32 -62 -151 -31 -210 34 -64 124 -63 175 2 42 53
20 149 -41 190 -29 19 -87 29 -103 18z"/>
<path d="M5568 1149 c-22 -12 -37 -65 -30 -107 10 -71 82 -103 151 -67 32 16
41 33 41 74 0 69 -105 134 -162 100z"/>
<path d="M9486 1081 c-40 -27 -55 -57 -56 -114 0 -89 46 -154 118 -164 122
-16 207 99 153 209 -36 76 -149 112 -215 69z"/>
<path d="M6825 859 c-33 -16 -47 -48 -53 -116 -6 -83 9 -103 81 -103 88 0 129
50 106 132 -20 76 -79 114 -134 87z"/>
<path d="M27 103 c-25 -4 -27 -8 -27 -54 0 -48 1 -49 30 -49 30 0 30 1 30 55
0 30 -1 54 -2 54 -2 -1 -15 -4 -31 -6z"/>
</g>
</svg>
