<?xml version="1.0" standalone="no"?>
<!DOCTYPE svg PUBLIC "-//W3C//DTD SVG 20010904//EN"
 "http://www.w3.org/TR/2001/REC-SVG-20010904/DTD/svg10.dtd">
<svg version="1.0" xmlns="http://www.w3.org/2000/svg"
 width="1024.000000pt" height="1024.000000pt" viewBox="0 0 1024.000000 1024.000000"
 preserveAspectRatio="xMidYMid meet">
<metadata>
Created by potrace 1.14, written by Peter Selinger 2001-2017
</metadata>
<g transform="translate(0.000000,1024.000000) scale(0.100000,-0.100000)"
fill="#000000" stroke="none">
<path d="M0 9750 c1 -429 2 -483 15 -466 10 13 15 46 16 100 l1 81 19 -40 c10
-22 21 -55 25 -72 3 -18 9 -33 13 -33 13 0 152 50 181 65 73 38 5 -42 -87
-102 -24 -16 -43 -31 -43 -35 0 -3 32 -14 71 -23 68 -15 105 -35 92 -49 -4 -3
-44 -6 -90 -6 l-83 0 -1 -82 c0 -46 -4 -92 -8 -102 -6 -17 -9 -15 -23 15 -9
19 -21 58 -28 87 -13 56 -30 72 -55 52 -13 -11 -15 -59 -15 -311 l0 -298 93 4
c77 4 84 3 42 -5 -27 -5 -69 -14 -92 -21 l-43 -12 0 -89 c0 -71 3 -89 13 -85
8 3 39 8 70 12 76 10 76 -10 0 -25 -32 -6 -64 -13 -71 -15 -10 -4 -12 -59 -12
-249 l1 -244 31 9 c45 13 249 174 248 197 -1 9 -24 25 -122 86 -75 46 -98 66
-61 51 10 -3 65 -19 123 -35 58 -16 113 -32 122 -35 15 -6 17 0 17 47 0 29 7
82 15 118 9 36 16 81 17 100 1 21 3 27 6 15 3 -11 16 -58 29 -104 13 -46 24
-94 24 -107 0 -27 12 -31 30 -9 7 9 44 43 81 76 56 49 70 58 75 44 4 -10 -5
-31 -25 -56 -37 -45 -70 -115 -71 -146 0 -30 36 -36 173 -28 109 6 111 5 77
-11 -19 -9 -57 -24 -83 -34 l-49 -17 58 -37 c32 -20 65 -36 72 -36 25 0 6 -23
-30 -36 -31 -10 -41 -9 -79 8 -85 39 -98 40 -113 10 -18 -36 -24 -66 -36 -207
-6 -66 -14 -123 -19 -128 -16 -16 -32 22 -46 107 -7 48 -21 108 -30 135 l-16
48 -84 16 c-115 23 -127 22 -237 -20 l-98 -38 0 -732 c0 -688 1 -732 18 -736
16 -4 16 -5 0 -6 -17 -1 -18 -20 -18 -247 l0 -247 43 7 c87 14 338 33 887 66
328 20 540 12 790 -30 63 -11 232 -36 375 -55 499 -69 900 -177 1365 -368 47
-19 125 -51 174 -71 49 -20 94 -40 101 -46 7 -5 37 -18 66 -29 52 -17 115 -49
414 -206 245 -129 568 -329 875 -541 36 -25 173 -152 305 -283 132 -131 299
-288 370 -349 238 -202 440 -426 666 -737 277 -382 412 -602 613 -999 111
-219 188 -440 256 -731 23 -99 62 -263 86 -365 56 -239 86 -397 125 -650 27
-178 30 -220 24 -317 l-6 -113 1355 0 1356 0 0 100 c0 94 -1 100 -21 100 -33
0 -109 22 -109 31 0 5 19 9 43 9 88 0 87 -1 87 114 l0 102 -111 12 c-62 6
-116 9 -120 6 -5 -3 -9 2 -9 12 0 13 7 15 33 11 17 -3 71 -9 120 -13 l87 -6 0
80 0 79 -37 6 c-21 4 -89 12 -150 18 -62 7 -113 16 -113 21 0 10 121 1 228
-17 l72 -12 0 87 0 87 -122 2 c-137 2 -208 9 -208 22 0 21 149 23 288 3 l42
-7 0 96 c0 102 -3 107 -55 107 -13 0 -27 5 -31 11 -5 9 6 10 40 5 l46 -7 0
169 0 169 -58 41 -58 41 -12 -110 c-7 -60 -18 -121 -24 -136 -11 -26 -12 -24
-19 37 -4 36 -7 97 -8 136 0 39 -4 73 -7 77 -3 3 -17 1 -30 -5 -17 -8 -27 -8
-38 1 -9 7 -36 11 -66 10 -82 -5 -79 13 10 56 44 21 80 42 80 45 0 4 -9 15
-21 26 -23 20 -49 66 -49 84 0 7 22 -7 50 -30 27 -23 54 -39 60 -35 5 3 15 26
21 50 6 25 17 49 25 56 11 9 12 0 7 -55 -3 -36 -4 -66 -1 -66 3 0 35 14 72 30
l66 30 0 135 c0 130 -1 135 -21 135 -50 0 -109 49 -109 91 0 5 27 -4 60 -21
33 -16 62 -30 65 -30 3 0 5 91 5 203 l0 204 -77 11 c-43 7 -114 15 -158 18
-44 3 -82 8 -85 11 -6 7 244 -4 288 -13 l32 -6 0 306 0 306 -26 40 c-31 46
-29 70 4 40 l22 -21 0 278 0 277 -85 79 c-101 95 -185 191 -162 186 9 -2 68
-53 131 -112 l116 -109 0 205 0 204 -127 104 c-142 115 -263 226 -263 241 0
17 307 -228 359 -287 l31 -36 0 150 0 150 -43 41 -42 41 43 -6 42 -7 0 195 0
195 -160 104 c-88 57 -185 118 -217 137 -32 18 -92 55 -133 81 -41 26 -138 85
-215 130 -221 131 -279 173 -312 227 -27 44 -57 113 -51 118 2 2 51 -27 110
-64 60 -36 136 -82 170 -102 35 -20 155 -89 268 -153 507 -291 535 -306 538
-284 5 29 -4 36 -168 128 -192 109 -231 132 -388 228 -73 45 -136 82 -139 82
-3 0 -49 26 -102 59 -53 32 -161 97 -241 143 -261 152 -357 216 -489 322 -179
144 -207 164 -446 318 -216 139 -541 328 -565 328 -29 0 29 -44 169 -127 80
-47 193 -116 251 -153 199 -127 237 -150 255 -150 14 0 11 -7 -14 -35 -17 -20
-31 -42 -31 -50 0 -8 48 -52 107 -97 105 -82 174 -130 403 -284 63 -42 125
-86 138 -97 24 -22 28 -47 11 -64 -17 -17 -378 232 -755 520 -174 132 -437
316 -718 502 -101 67 -138 96 -142 115 -3 14 -7 30 -9 37 -4 11 -103 88 -231
178 -39 28 -99 71 -133 97 -84 64 -312 198 -516 302 -93 48 -187 101 -207 117
-20 16 -39 29 -42 29 -3 0 -12 -15 -20 -32 -18 -40 -38 -62 -96 -109 -66 -53
-87 -62 -94 -43 -4 10 15 37 56 80 34 35 59 67 56 70 -4 3 -37 -8 -75 -24 -37
-17 -87 -35 -110 -41 -23 -7 -45 -16 -48 -20 -7 -12 68 -24 97 -16 36 10 5
-11 -77 -51 -49 -24 -83 -34 -117 -34 -69 0 -189 28 -213 50 -11 10 -54 34
-95 53 -66 30 -140 90 -127 103 3 3 24 -7 48 -21 85 -50 154 -78 202 -83 68
-7 59 14 -19 42 -70 26 -103 48 -159 106 l-40 42 44 -22 c61 -31 72 -15 33 47
-16 26 -35 66 -41 88 -13 49 -14 165 -2 165 5 0 15 -26 21 -57 15 -73 54 -156
92 -194 30 -29 110 -59 160 -59 47 0 33 28 -29 58 -62 29 -78 51 -107 145 -14
44 -14 52 0 79 11 21 14 44 10 70 -8 47 -1 61 22 49 31 -16 56 4 70 54 7 26
22 60 32 75 20 28 26 50 14 50 -17 0 -154 -108 -174 -137 -28 -42 -43 -107
-34 -158 5 -32 4 -38 -7 -28 -7 7 -15 40 -17 73 -4 58 -6 61 -34 67 l-29 6 24
26 c14 14 30 36 36 48 6 12 56 50 111 84 99 62 117 79 81 79 -46 0 -152 -61
-180 -104 -9 -14 -36 -39 -60 -56 -47 -34 -63 -65 -88 -170 -17 -70 -36 -89
-48 -50 -9 28 11 119 48 215 27 71 39 89 111 160 100 99 131 121 189 137 40
10 44 14 36 31 -6 10 -8 22 -4 25 12 12 197 14 256 3 88 -18 202 -72 230 -111
13 -18 42 -41 64 -52 47 -23 179 -157 205 -208 10 -19 26 -42 36 -51 22 -20
269 -97 649 -204 149 -42 349 -100 445 -130 217 -66 373 -110 605 -170 99 -26
230 -67 290 -92 61 -25 202 -82 315 -128 285 -115 314 -128 405 -173 44 -22
125 -59 180 -82 259 -109 319 -137 450 -204 120 -62 234 -114 309 -140 10 -3
16 -9 13 -12 -3 -3 -173 45 -379 106 -319 96 -426 130 -588 190 -14 6 -59 17
-100 25 -142 30 -379 117 -600 222 -69 33 -162 72 -207 88 -46 16 -83 32 -83
36 0 11 112 -23 194 -59 71 -31 99 -32 94 -4 -3 14 -195 102 -223 102 -6 0
-83 20 -171 45 -338 97 -717 187 -760 181 -29 -4 -67 3 -125 21 -155 47 -207
58 -187 37 3 -3 70 -25 149 -50 79 -25 164 -58 189 -73 25 -16 101 -58 170
-93 175 -91 177 -92 408 -245 114 -76 264 -174 334 -218 164 -104 327 -216
408 -281 83 -67 214 -158 265 -185 22 -12 108 -70 190 -129 83 -59 191 -133
240 -165 96 -61 292 -190 651 -428 121 -81 224 -147 227 -147 4 0 7 75 7 168
l0 167 -202 108 c-112 59 -237 126 -278 149 -108 59 -312 169 -405 218 -44 23
-98 55 -120 70 -62 42 -217 130 -357 203 -70 36 -180 98 -245 138 -65 39 -137
83 -160 96 -24 14 -43 29 -43 34 0 5 10 3 23 -5 12 -8 100 -49 194 -90 223
-97 414 -196 406 -209 -3 -6 -1 -7 5 -3 12 7 229 -104 335 -171 37 -24 69 -43
72 -43 3 0 60 -35 128 -77 67 -42 190 -116 272 -163 213 -123 284 -168 330
-207 l40 -34 3 627 c1 345 1 629 -1 630 -2 2 -93 26 -203 54 -202 51 -387 105
-569 165 -145 48 -336 98 -527 140 -143 31 -172 40 -198 65 -36 33 -152 84
-253 110 -40 10 -154 32 -254 49 -101 18 -287 56 -415 86 -128 29 -262 59
-297 67 -84 17 -94 38 -14 27 32 -4 126 -13 208 -19 135 -9 238 -21 465 -50
282 -37 425 -52 570 -60 91 -5 194 -12 230 -16 36 -4 91 -8 122 -9 32 -1 61
-4 64 -7 3 -4 -21 -14 -53 -23 -99 -29 -213 -76 -213 -88 0 -14 96 -57 191
-86 35 -11 115 -36 177 -55 63 -20 123 -36 135 -36 20 0 180 -42 352 -92 86
-24 304 -108 404 -154 40 -19 75 -34 77 -34 2 0 4 76 4 169 l0 169 -52 12
c-50 10 -105 37 -95 46 2 2 32 -5 67 -16 34 -11 67 -20 71 -20 5 0 9 229 9
514 l0 515 -57 11 c-173 34 -399 95 -385 104 27 17 318 -44 425 -89 15 -6 17
1 17 78 l0 85 -85 23 c-53 15 -85 29 -85 37 0 16 42 9 108 -19 24 -11 48 -19
53 -19 5 0 9 75 9 174 l0 174 -67 17 c-38 9 -79 23 -93 31 l-25 14 30 -6 c17
-4 54 -15 84 -26 30 -10 58 -18 63 -18 4 0 8 133 8 295 l0 295 -26 -6 c-19 -5
-25 -4 -20 5 4 6 16 11 27 11 18 0 19 8 19 105 l0 105 -44 0 c-65 0 -166 12
-166 20 0 4 47 5 105 2 l105 -5 0 82 0 81 -82 0 c-46 0 -234 3 -418 6 -413 7
-1124 9 -5725 19 -2002 4 -3724 8 -3827 9 l-188 1 0 -485z m8890 440 c0 -5 -7
-10 -16 -10 -8 0 -12 5 -9 10 3 6 10 10 16 10 5 0 9 -4 9 -10z m-8567 -117
c-13 -2 -35 -2 -50 0 -16 2 -5 4 22 4 28 0 40 -2 28 -4z m2457 -53 c0 -6 -39
-10 -98 -10 -54 0 -207 -3 -340 -7 -163 -4 -242 -3 -242 4 0 6 17 9 38 8 20
-2 105 0 187 4 233 12 455 12 455 1z m4206 3 c-13 -13 -41 -15 -246 -20 -205
-5 -253 1 -123 16 86 10 379 13 369 4z m602 -22 c8 -4 -41 -11 -115 -14 -166
-9 -308 -9 -300 0 18 18 389 31 415 14z m-6358 -11 c0 -6 -71 -9 -197 -8 -170
2 -183 3 -93 8 183 11 290 11 290 0z m3158 4 c171 -13 83 -22 -222 -23 -360
-2 -516 11 -231 19 319 10 360 10 453 4z m1027 -5 c-22 -4 -87 -7 -145 -7
l-105 2 90 6 c50 3 115 7 145 7 54 1 54 1 15 -8z m855 -8 c-19 -4 -62 -4 -95
0 -54 5 -50 6 35 6 60 1 82 -2 60 -6z m3228 -8 c-16 -2 -40 -2 -55 0 -16 2 -3
4 27 4 30 0 43 -2 28 -4z m-4523 -13 c13 -5 -21 -8 -90 -7 l-110 1 80 6 c44 3
85 7 90 7 6 1 19 -2 30 -7z m4351 -17 c14 -9 42 -19 62 -23 36 -6 34 -7 -41
-25 -69 -17 -86 -17 -150 -7 -80 14 -96 24 -78 46 23 28 169 34 207 9z m-1332
-13 c59 -11 111 -22 117 -25 59 -37 -154 -33 -323 6 -29 7 -48 16 -48 25 0 21
124 18 254 -6z m839 -1 c18 -10 18 -11 0 -31 -15 -17 -26 -19 -73 -15 -30 3
-98 16 -150 29 -92 22 -94 23 -55 30 53 9 254 -1 278 -13z m-8070 -26 c-7 -2
-19 -2 -25 0 -7 3 -2 5 12 5 14 0 19 -2 13 -5z m2530 0 c-56 -2 -151 -2 -210
0 -59 1 -13 3 102 3 116 0 164 -2 108 -3z m-410 -10 c-24 -2 -62 -2 -85 0 -24
2 -5 4 42 4 47 0 66 -2 43 -4z m3584 -136 c5 -39 9 -47 22 -41 9 4 43 17 76
28 33 12 65 25 71 28 7 5 9 -3 6 -22 -4 -26 0 -29 34 -39 22 -6 50 -11 64 -11
14 0 32 -5 40 -11 11 -8 5 -9 -25 -5 -145 21 -141 22 -180 -17 -19 -19 -35
-41 -34 -48 0 -8 27 -36 60 -62 61 -49 80 -84 36 -68 -20 8 -150 68 -168 78
-3 2 -16 -24 -28 -57 -13 -35 -27 -58 -32 -54 -6 3 -19 26 -29 50 l-19 43 -91
-49 c-50 -28 -102 -53 -115 -56 -48 -12 -25 16 60 72 47 32 85 63 85 71 0 7
-16 23 -35 34 -19 12 -35 25 -35 29 0 4 31 11 68 15 122 12 116 27 -31 71
-103 31 -204 32 -307 3 -61 -17 -113 -22 -273 -26 -127 -3 -203 -1 -209 5 -14
14 7 19 167 37 77 8 172 19 210 25 118 16 302 12 430 -10 64 -11 121 -20 125
-20 5 0 12 28 16 61 l7 61 14 -33 c8 -19 17 -56 20 -82z m-1091 87 c-77 -7
-143 -11 -148 -8 -27 17 20 24 145 23 l142 -1 -139 -14z m-4941 -44 c33 -7 27
-8 -40 -9 -83 -1 -125 6 -125 19 0 9 99 2 165 -10z m1933 -10 c-24 -14 -512
-25 -643 -14 l-110 9 200 5 c373 10 571 10 553 0z m7600 -15 c-3 -3 -9 2 -12
12 -6 14 -5 15 5 6 7 -7 10 -15 7 -18z m-2608 -15 c0 -6 -27 -10 -60 -10 -33
0 -60 4 -60 10 0 6 27 10 60 10 33 0 60 -4 60 -10z m-367 -7 c-13 -2 -33 -2
-45 0 -13 2 -3 4 22 4 25 0 35 -2 23 -4z m2006 -14 c11 -7 -2 -8 -44 -4 -33 3
-64 11 -70 17 -13 13 91 2 114 -13z m-6381 4 c-27 -2 -69 -2 -95 0 -27 2 -5 3
47 3 52 0 74 -1 48 -3z m1902 -3 c0 -14 -172 -20 -555 -18 -404 2 -400 3 75
17 357 10 480 11 480 1z m5190 1 c19 -5 107 -30 195 -55 88 -25 178 -51 200
-57 127 -36 101 -38 -64 -4 -177 36 -441 108 -441 121 0 7 74 4 110 -5z
m-8952 -48 c-21 -2 -57 -2 -80 0 -24 2 -7 4 37 4 44 0 63 -2 43 -4z m195 0
c-29 -2 -77 -2 -105 0 -29 2 -6 3 52 3 58 0 81 -1 53 -3z m4150 -9 c-35 -15
-211 -44 -265 -44 l-33 0 31 20 c33 21 131 37 234 38 64 0 65 0 33 -14z m3407
-5 c36 -5 1 -6 -105 -3 -88 3 -164 9 -168 13 -10 10 193 3 273 -10z m-6922 -1
c-8 -22 -126 -37 -273 -36 -133 1 -136 1 -65 10 41 5 125 15 185 22 147 18
157 18 153 4z m6255 0 c-15 -7 -49 -7 -110 -1 l-88 10 110 1 c84 0 105 -2 88
-10z m80 5 c-7 -2 -21 -2 -30 0 -10 3 -4 5 12 5 17 0 24 -2 18 -5z m-6156
-176 l6 -58 27 26 c16 15 53 33 86 41 32 9 75 24 96 35 21 11 38 16 38 12 0
-13 -39 -73 -87 -136 -25 -32 -44 -59 -42 -60 27 -17 109 -86 126 -106 30 -34
29 -42 -4 -31 -16 5 -44 11 -64 14 -19 4 -51 18 -69 31 l-34 25 -28 -130 c-42
-201 -43 -201 -74 58 -3 28 -10 52 -16 52 -5 0 -40 -29 -78 -65 -64 -62 -69
-65 -94 -54 -14 7 -26 15 -26 19 0 3 14 19 31 36 61 57 149 165 143 175 -3 6
-31 21 -61 34 -62 28 -64 51 -3 41 21 -3 45 -9 54 -12 14 -5 16 4 16 64 0 38
3 91 7 118 l7 49 18 -60 c10 -33 21 -86 25 -118z m1143 126 c23 -12 21 -13
-30 -7 -62 7 -73 11 -65 24 7 12 62 2 95 -17z m-2812 -8 c4 -5 -1 -5 -11 -2
-10 4 -32 7 -48 7 -16 0 -29 4 -29 9 0 10 77 -3 88 -14z m3335 18 c-7 -2 -21
-2 -30 0 -10 3 -4 5 12 5 17 0 24 -2 18 -5z m5283 -130 c21 -182 18 -175 67
-169 107 13 174 16 194 9 20 -7 16 -11 -35 -31 -31 -12 -70 -33 -87 -46 l-30
-24 35 -37 c48 -51 77 -64 159 -71 39 -4 71 -11 71 -15 0 -11 -68 -11 -132 0
-28 5 -48 4 -48 -1 0 -33 109 -161 166 -194 10 -7 16 -14 13 -18 -3 -3 -29 6
-57 22 -151 81 -234 123 -238 120 -1 -2 -15 -46 -29 -98 -40 -142 -40 -143
-53 -148 -9 -3 -12 20 -12 82 0 99 -10 133 -45 146 -52 20 -325 60 -411 61
-125 1 -146 11 -69 34 33 10 83 23 110 30 47 11 50 14 48 42 l-3 30 109 26
c59 15 119 27 133 27 23 0 25 5 41 93 22 122 68 270 80 258 5 -5 16 -63 23
-128z m-3548 110 c-10 -2 -26 -2 -35 0 -10 3 -2 5 17 5 19 0 27 -2 18 -5z
m-105 -10 c-7 -2 -19 -2 -25 0 -7 3 -2 5 12 5 14 0 19 -2 13 -5z m4611 -53
c123 -40 300 -85 391 -100 32 -6 0 -7 -90 -4 -162 6 -212 14 -350 55 -55 16
-129 35 -165 43 -52 10 -65 16 -65 31 0 44 94 35 279 -25z m-2334 19 c-159
-39 -226 -50 -373 -59 -84 -5 -165 -12 -182 -16 l-30 -6 25 21 c14 11 39 23
55 26 17 3 59 13 94 21 87 21 202 31 356 32 l130 0 -75 -19z m2887 15 c-3 -3
-12 -4 -19 -1 -8 3 -5 6 6 6 11 1 17 -2 13 -5z m-947 -14 c0 -6 -48 -10 -125
-10 -77 0 -125 4 -125 10 0 6 48 10 125 10 77 0 125 -4 125 -10z m-5167 -7
c-18 -2 -48 -2 -65 0 -18 2 -4 4 32 4 36 0 50 -2 33 -4z m-3585 -24 c57 -7 99
-15 95 -20 -4 -4 -53 -1 -108 6 -55 8 -124 14 -152 15 -29 0 -53 3 -53 8 0 9
85 5 218 -9z m2252 -8 c31 -6 -3 -8 -105 -8 -94 0 -131 3 -100 7 71 10 152 10
205 1z m970 -1 c0 -5 -4 -10 -10 -10 -5 0 -10 5 -10 10 0 6 5 10 10 10 6 0 10
-4 10 -10z m-2847 -16 c65 -3 116 -8 113 -11 -9 -9 -366 9 -366 18 0 5 30 7
68 4 37 -2 120 -7 185 -11z m2790 9 c-18 -2 -48 -2 -65 0 -18 2 -4 4 32 4 36
0 50 -2 33 -4z m-140 -10 c-13 -2 -33 -2 -45 0 -13 2 -3 4 22 4 25 0 35 -2 23
-4z m2522 -2 c-32 -13 -175 -22 -175 -11 0 8 52 14 155 17 29 1 34 0 20 -6z
m-2605 -7 c-40 -10 -287 -44 -314 -43 l-31 0 25 11 c28 13 210 35 285 35 28 1
43 -1 35 -3z m1425 -14 c-16 -4 -55 -7 -85 -7 l-55 0 45 7 c25 4 63 7 85 7 38
1 38 0 10 -7z m784 -14 c-7 -6 -208 -45 -284 -55 -38 -5 -85 -13 -102 -16 -21
-5 -33 -4 -33 3 0 12 53 25 215 52 100 16 215 26 204 16z m2620 -12 c13 -3 21
-8 18 -11 -14 -13 -237 -55 -288 -54 -30 1 -118 -8 -195 -19 -76 -12 -195 -23
-264 -26 -323 -10 -390 -11 -390 -4 0 14 98 50 137 50 21 0 95 14 163 31 69
17 170 34 225 38 102 7 551 4 594 -5z m1056 -84 c198 -20 246 -28 193 -29 -37
-1 -429 37 -498 49 -52 9 -51 9 25 5 44 -2 170 -13 280 -25z m-6560 10 c-16
-4 -52 -8 -80 -7 l-50 0 40 7 c22 4 58 7 80 7 38 1 38 0 10 -7z m-162 -7 c-13
-2 -35 -2 -50 0 -16 2 -5 4 22 4 28 0 40 -2 28 -4z m-1748 -13 c-28 -12 -395
-80 -425 -79 -14 0 13 12 60 25 95 27 274 58 365 62 l20 1 -20 -9z m4174 6
c-2 -3 -76 -14 -163 -26 -87 -11 -162 -23 -166 -25 -4 -2 -59 -16 -124 -30
-65 -15 -142 -38 -172 -51 -49 -21 -54 -22 -54 -6 0 11 28 32 82 61 l81 43
206 14 c113 8 213 16 221 18 22 5 94 7 89 2z m-892 -42 c-3 -3 -12 -4 -19 -1
-8 3 -5 6 6 6 11 1 17 -2 13 -5z m213 -3 c-27 -16 -160 -32 -178 -22 -13 7 -8
11 23 16 22 3 47 8 55 10 36 7 114 4 100 -4z m1789 -4 c-23 -18 -504 -117
-570 -117 -19 0 -85 -9 -144 -20 -60 -10 -111 -17 -113 -15 -9 9 52 26 166 46
64 11 151 29 192 39 72 18 181 36 375 64 82 11 106 12 94 3z m-4749 -23 c-152
-22 -227 -27 -246 -15 -15 8 -6 11 46 11 36 1 110 7 165 14 55 7 104 10 110 7
5 -3 -29 -11 -75 -17z m2769 -41 c12 -14 19 -28 17 -30 -7 -7 -86 37 -86 47 0
21 49 9 69 -17z m2587 5 c8 -8 -9 -12 -146 -33 -193 -30 -224 -34 -337 -45
-62 -6 -120 -13 -129 -17 -11 -4 -15 -2 -13 6 10 29 285 92 449 103 57 4 166
-5 176 -14z m3009 -18 c3 -6 -1 -7 -9 -4 -18 7 -21 14 -7 14 6 0 13 -4 16 -10z
m-6743 -52 c23 -49 31 -68 57 -140 l10 -28 88 56 c142 92 203 110 136 42 -22
-24 -53 -66 -68 -95 -15 -29 -36 -61 -46 -72 -19 -21 -25 -36 -11 -27 12 7
162 -28 267 -62 64 -21 84 -31 70 -35 -36 -11 -199 -37 -235 -37 l-35 -1 55
-49 c30 -27 48 -49 40 -49 -8 0 -55 20 -105 44 -49 24 -92 42 -94 39 -2 -2 -6
-58 -9 -124 -3 -66 -8 -120 -13 -120 -12 0 -25 29 -34 70 -4 19 -19 61 -33 93
l-25 58 -41 -6 c-23 -4 -54 -10 -71 -15 -16 -5 -73 -14 -127 -19 -53 -6 -104
-14 -114 -18 -12 -4 -15 -3 -10 5 4 7 58 36 119 66 62 30 133 73 160 96 43 38
47 45 47 87 0 41 -5 51 -40 85 -48 45 -106 76 -163 88 l-42 8 52 1 c62 1 93
-10 145 -51 21 -17 41 -28 44 -25 3 2 0 42 -5 87 -9 72 -8 100 3 100 2 0 15
-24 28 -52z m851 -5 c-7 -2 -19 -2 -25 0 -7 3 -2 5 12 5 14 0 19 -2 13 -5z
m-2858 -12 l30 -7 -40 -7 c-201 -36 -430 -47 -530 -24 -45 11 -37 12 95 13 86
0 182 7 235 16 96 17 161 20 210 9z m2793 2 c-16 -2 -28 -11 -28 -19 0 -8 -3
-14 -7 -15 -5 -1 -54 -4 -111 -8 -75 -4 -102 -3 -102 6 0 22 100 41 210 40 36
0 53 -2 38 -4z m5720 -23 c210 -43 339 -76 482 -123 228 -75 105 -57 -595 88
-93 19 -193 35 -222 35 -28 0 -54 4 -58 10 -5 8 16 10 198 18 26 1 114 -12
195 -28z m-4453 -5 c-160 -42 -560 -119 -579 -112 -35 13 -3 26 94 37 52 7
190 32 305 55 228 48 327 58 180 20z m2156 -9 c-21 -25 -272 -77 -506 -106
-93 -12 -201 -27 -239 -35 -49 -10 -74 -11 -88 -4 -11 6 -18 12 -16 14 6 7
364 84 438 94 41 6 140 15 220 20 80 5 156 14 170 19 34 14 34 14 21 -2z m734
-1 c-5 -2 -152 -5 -325 -7 -173 -2 -299 -1 -280 3 35 6 624 11 605 4z m-5465
-44 c0 -5 -29 -11 -65 -13 -77 -4 -89 9 -12 15 28 2 58 4 65 5 6 1 12 -2 12
-7z m-1040 -61 c0 -6 -35 -10 -86 -10 -54 0 -83 4 -79 10 3 6 42 10 86 10 46
0 79 -4 79 -10z m4067 -16 c2 -6 -22 -17 -58 -24 -52 -11 -62 -11 -70 1 -6 11
2 17 39 25 55 14 84 13 89 -2z m-5102 -13 c-33 -10 -69 -22 -80 -26 -19 -7
-19 -7 1 8 24 18 79 35 114 35 14 0 -2 -7 -35 -17z m3534 -5 c-8 -9 -168 -46
-191 -45 -12 1 18 12 67 24 85 22 134 30 124 21z m2360 0 c-10 -11 -432 -76
-491 -76 l-63 -1 35 -15 c32 -15 33 -17 15 -24 -11 -5 -49 -9 -85 -10 -36 0
-95 -4 -132 -9 -61 -6 -68 -5 -68 10 0 23 145 57 254 60 75 2 118 7 376 48
120 19 166 24 159 17z m-1034 -25 c-6 -6 -66 -21 -134 -35 -152 -30 -184 -51
-66 -43 101 6 55 -5 -110 -29 -177 -24 -215 -28 -215 -18 1 14 202 75 345 105
140 29 195 35 180 20z m-2305 -35 c0 -16 -27 -29 -42 -20 -7 5 -4 12 7 21 24
17 35 17 35 -1z m1460 -1 c-25 -30 -155 -48 -155 -21 0 13 73 34 124 35 37 1
42 -1 31 -14z m-3740 -5 c0 -5 -4 -10 -10 -10 -5 0 -10 5 -10 10 0 6 5 10 10
10 6 0 10 -4 10 -10z m1895 -1 c-56 -11 -145 -11 -145 1 0 6 37 10 93 9 76 -1
85 -3 52 -10z m5473 -14 c104 -6 409 -49 420 -59 15 -16 -264 10 -424 39 -44
8 -93 15 -107 15 -15 0 -27 5 -27 11 0 6 8 8 18 5 9 -3 63 -8 120 -11z m-888
-6 c-25 -4 -112 -7 -195 -7 -103 1 -133 3 -95 8 82 10 347 10 290 -1z m-5997
-16 c-35 -2 -91 -2 -125 0 -35 2 -7 3 62 3 69 0 97 -1 63 -3z m902 -12 c-26
-10 -255 -34 -262 -27 -9 8 165 32 252 34 24 1 26 -1 10 -7z m7664 -36 c51 -8
96 -16 99 -19 9 -10 -29 -7 -134 9 -54 8 -125 15 -156 15 -36 0 -58 4 -58 11
0 13 92 7 249 -16z m-2051 8 c-10 -2 -26 -2 -35 0 -10 3 -2 5 17 5 19 0 27 -2
18 -5z m-3515 -10 c-7 -2 -19 -2 -25 0 -7 3 -2 5 12 5 14 0 19 -2 13 -5z
m3377 -3 c-136 -16 -265 -23 -257 -14 10 10 134 21 247 21 l75 0 -65 -7z
m-3460 -10 c-19 -5 -55 -11 -80 -14 l-45 -5 50 14 c28 7 64 13 80 13 29 0 29
0 -5 -8z m-3310 -19 c-16 -9 -222 -41 -266 -41 -100 0 137 45 256 49 19 0 21
-2 10 -8z m5418 -33 c26 -26 27 -25 -243 -58 -49 -6 -134 -20 -188 -31 -103
-20 -178 -25 -161 -11 5 5 59 17 119 26 61 9 125 22 144 28 33 10 269 55 302
57 8 1 20 -4 27 -11z m-4703 -20 c7 -7 -26 -9 -97 -6 -59 2 -112 8 -117 13 -7
7 25 9 97 7 59 -2 112 -8 117 -14z m7949 13 c8 -13 -30 -21 -101 -21 -71 0
-86 17 -20 23 84 7 116 7 121 -2z m-7199 -10 c-8 -13 -57 -28 -150 -46 -168
-32 -153 -11 18 26 148 32 139 31 132 20z m4931 -8 c43 -16 -43 -26 -256 -29
-254 -4 -259 7 -15 30 143 14 233 14 271 -1z m-6930 -10 c-8 -8 -266 -63 -266
-57 0 6 73 35 125 49 54 15 153 20 141 8z m2179 -13 c-27 -4 -54 -3 -59 1 -6
5 15 8 50 8 l59 -2 -50 -7z m1935 -9 c-8 -5 -55 -19 -104 -31 -122 -30 -303
-88 -348 -111 -39 -20 -50 -12 -23 15 20 19 102 45 276 86 74 18 148 36 164
40 40 11 53 11 35 1z m3900 -11 c56 -5 21 -6 -100 -3 -102 3 -216 9 -255 13
-90 11 238 1 355 -10z m-3570 0 c0 -5 -10 -10 -22 -10 -13 0 -41 -3 -63 -7
-22 -3 -37 -2 -32 2 4 5 26 12 50 16 63 10 67 10 67 -1z m-902 -32 c-5 -16
-164 -98 -190 -98 -35 0 -8 21 85 66 97 47 111 51 105 32z m1592 -9 c-52 -11
-104 -18 -115 -16 -32 5 105 35 160 35 44 0 39 -2 -45 -19z m4095 -28 c66 -16
167 -39 224 -51 107 -22 168 -43 101 -35 -19 2 -84 7 -145 9 -60 3 -177 15
-259 26 -82 11 -177 20 -212 20 -34 0 -66 5 -69 10 -4 6 18 22 47 36 46 22 63
25 123 20 39 -2 124 -18 190 -35z m-8288 13 c3 -8 1 -20 -6 -27 -8 -8 -11 -8
-11 2 0 10 -16 11 -67 6 -81 -9 -78 11 3 24 72 13 74 12 81 -5z m5263 -19
c-89 -16 -106 -17 -96 -8 9 9 81 20 131 21 28 0 18 -4 -35 -13z m1333 9 c43
-4 77 -10 77 -13 0 -3 -78 -7 -173 -9 -178 -2 -247 -9 -431 -43 -96 -18 -129
-19 -115 -4 13 13 234 48 429 68 65 7 137 7 213 1z m1001 -14 c-33 -13 -304
-25 -304 -13 0 21 18 23 169 22 98 0 148 -3 135 -9z m-7156 -49 c9 -25 17 -30
62 -36 28 -4 50 -9 48 -10 -4 -4 -221 -27 -256 -27 -45 0 -112 13 -112 22 0
17 63 42 149 61 47 9 89 18 93 18 3 1 11 -12 16 -28z m3357 13 c-17 -5 -256
-35 -356 -44 -57 -6 -115 -18 -145 -31 -27 -11 -104 -40 -171 -64 -157 -54
-167 -35 -15 28 143 60 237 87 308 88 32 0 129 8 214 18 85 10 159 15 165 12
6 -3 6 -6 0 -7z m-2684 -4 c80 0 56 -16 -43 -28 -162 -21 -258 -26 -258 -14 0
14 207 54 238 46 8 -2 36 -4 63 -4z m-1381 -38 c0 -4 -34 -12 -75 -18 -74 -9
-92 -5 -57 15 20 12 132 15 132 3z m5935 -9 c-16 -2 -65 -13 -108 -24 -43 -11
-124 -24 -180 -29 -56 -5 -117 -13 -136 -16 -26 -5 -33 -4 -29 7 3 9 30 17 74
22 38 5 128 17 199 27 72 10 148 18 170 17 31 0 33 -1 10 -4z m-6675 -23 c0
-5 -4 -10 -10 -10 -5 0 -10 5 -10 10 0 6 5 10 10 10 6 0 10 -4 10 -10z m1130
-3 c0 -10 -26 -18 -82 -25 -101 -15 -118 -15 -118 -2 0 6 24 10 53 10 28 1 66
7 82 15 39 18 65 18 65 2z m2170 -25 c0 -21 -344 -112 -420 -112 -65 0 80 51
250 88 145 32 170 36 170 24z m4374 -2 c110 0 197 -3 194 -6 -10 -9 -502 -4
-533 6 -22 8 -8 9 55 5 47 -3 175 -5 284 -5z m748 -29 l4 -29 -105 -8 c-188
-13 -260 -10 -240 10 12 13 227 52 295 55 39 1 42 -1 46 -28z m313 14 c55 -4
118 -10 140 -15 33 -8 29 -9 -25 -4 -36 2 -123 7 -193 11 -70 3 -130 10 -133
15 -4 5 19 7 53 4 32 -3 103 -8 158 -11z m-8337 -1 c-9 -8 -220 -55 -226 -50
-4 5 30 15 133 40 64 15 102 20 93 10z m4527 -29 c-40 -25 -82 -36 -214 -55
-71 -10 -93 -8 -77 7 11 12 257 71 296 72 l35 0 -40 -24z m2004 -19 c11 -10
53 -17 121 -22 91 -6 100 -9 70 -17 -48 -13 -318 -3 -333 12 -9 9 -2 11 28 10
67 -3 85 0 85 16 0 19 9 19 29 1z m-6049 -37 c0 -5 -17 -17 -37 -26 -67 -27
-62 -53 11 -53 66 0 31 -13 -72 -26 -104 -14 -192 -16 -231 -5 -20 5 -10 13
70 54 62 31 115 51 154 56 86 12 105 12 105 0z m1757 5 c-3 -3 -12 -4 -19 -1
-8 3 -5 6 6 6 11 1 17 -2 13 -5z m7060 -131 c-5 -52 -7 -97 -4 -99 3 -3 34 3
69 14 67 21 226 48 233 40 3 -3 -20 -22 -50 -43 -57 -39 -95 -82 -89 -100 2
-5 -16 -23 -41 -38 -32 -21 -45 -35 -45 -52 0 -25 54 -97 114 -155 40 -37 81
-98 74 -106 -12 -11 -59 20 -153 100 -64 54 -102 81 -106 73 -4 -7 -19 -59
-34 -117 -42 -165 -57 -166 -81 -6 -15 101 -36 164 -59 172 -16 7 -159 -23
-189 -38 -28 -15 -107 -11 -124 6 -13 12 -8 18 39 45 55 31 78 40 159 62 l45
12 -75 14 c-41 7 -120 20 -175 29 -55 8 -101 17 -104 19 -2 3 9 10 25 17 45
18 159 13 262 -11 83 -20 98 -21 138 -10 25 8 44 19 44 28 0 8 -18 38 -40 67
-22 29 -45 64 -51 78 -19 40 -50 47 -434 90 l-130 15 137 -4 c152 -5 299 -25
398 -55 49 -14 75 -29 105 -60 21 -22 45 -40 51 -40 7 0 26 35 42 78 49 131
44 121 51 93 4 -13 3 -66 -2 -118z m-6067 106 c-93 -33 -330 -92 -338 -85 -10
11 24 33 80 52 61 20 231 52 278 52 33 1 32 -1 -20 -19z m-1160 -7 c0 -5 -39
-14 -87 -21 -49 -7 -140 -26 -203 -43 -176 -46 -160 -45 -160 -7 0 23 3 30 9
21 7 -12 23 -11 92 4 46 9 143 25 214 34 72 10 131 18 133 19 1 0 2 -3 2 -7z
m-625 -12 c3 -5 1 -10 -4 -10 -6 0 -11 5 -11 10 0 6 2 10 4 10 3 0 8 -4 11
-10z m7030 0 c18 -5 -4 -6 -55 -3 -47 3 -87 7 -89 9 -8 7 114 2 144 -6z m-649
-67 c-2 -24 53 -52 163 -84 53 -16 141 -44 196 -63 55 -19 134 -45 175 -58
l75 -23 -47 -3 c-26 -2 -152 8 -280 22 -536 59 -705 71 -1253 86 -335 9 -525
26 -456 41 57 12 352 29 691 39 179 6 388 17 465 25 77 8 163 15 192 15 28 0
55 5 58 10 10 16 23 12 21 -7z m-6688 -3 c-15 -10 -217 -60 -238 -60 -25 0 -6
20 28 30 110 31 246 51 210 30z m1280 -85 c-3 -3 -107 -19 -231 -35 -124 -16
-271 -36 -328 -45 -56 -8 -114 -14 -128 -14 -30 1 224 41 409 64 69 9 150 19
180 24 68 11 105 13 98 6z m887 -44 c-32 -13 -99 -21 -89 -12 12 12 41 19 79
19 25 1 26 -1 10 -7z m-120 -23 c6 -4 2 -8 -7 -8 -10 0 -18 7 -18 17 0 9 3 12
8 7 4 -5 12 -12 17 -16z m858 15 c-7 -2 -19 -2 -25 0 -7 3 -2 5 12 5 14 0 19
-2 13 -5z m-1543 -13 c0 -5 -4 -10 -10 -10 -5 0 -10 5 -10 10 0 6 5 10 10 10
6 0 10 -4 10 -10z m6063 0 c46 0 57 -3 57 -16 0 -14 -9 -16 -66 -11 -45 3 -72
11 -83 22 -15 17 -14 17 9 11 14 -3 51 -6 83 -6z m-4733 -19 c-22 -13 -250
-63 -263 -58 -7 2 33 14 88 26 55 12 116 26 135 31 47 11 58 11 40 1z m-2255
-10 c24 -5 34 -10 25 -14 -73 -28 -432 -112 -582 -137 -162 -26 -197 -29 -273
-21 -101 10 -121 22 -76 45 44 23 187 75 235 86 36 7 257 33 371 43 80 7 261
6 300 -2z m122 -7 c-3 -3 -12 -4 -19 -1 -8 3 -5 6 6 6 11 1 17 -2 13 -5z
m1258 -13 c-11 -5 -85 -21 -165 -36 -80 -16 -155 -32 -167 -36 -19 -7 -23 -5
-23 10 0 10 7 21 15 25 20 7 287 43 335 44 22 1 23 0 5 -7z m3228 -63 c157
-31 217 -46 217 -56 0 -17 -107 -10 -280 19 -166 27 -204 40 -208 68 -3 20 0
22 25 17 15 -3 126 -24 246 -48z m-3703 11 c0 -18 -298 -88 -439 -103 -55 -6
-55 -6 -35 14 24 24 212 74 352 93 96 13 122 13 122 -4z m1669 -43 c-7 -8
-207 -56 -226 -55 -10 1 32 14 92 29 106 28 143 35 134 26z m-829 -24 c0 -13
-12 -22 -22 -16 -10 6 -1 24 13 24 5 0 9 -4 9 -8z m-146 -126 c7 -61 15 -93
21 -88 6 4 34 37 64 74 48 60 77 85 87 75 2 -2 -5 -27 -16 -55 -11 -29 -20
-66 -20 -82 0 -17 -6 -46 -14 -64 l-14 -34 56 -11 c51 -10 168 -14 246 -8 16
1 31 -3 33 -8 2 -7 -37 -18 -94 -29 -54 -10 -111 -21 -128 -25 l-30 -7 55 -43
c58 -45 77 -70 44 -57 -46 19 -162 57 -195 65 -35 8 -36 8 -47 -33 -5 -23 -16
-78 -23 -123 -18 -119 -24 -114 -65 62 -10 42 -24 80 -32 82 -11 5 -155 -19
-205 -33 -11 -4 -16 -12 -13 -20 9 -24 -37 -34 -173 -40 -149 -5 -141 2 49 47
76 19 147 43 180 61 61 34 140 95 140 107 0 9 -122 46 -185 57 -95 16 -65 25
66 20 l136 -5 6 62 c8 79 37 171 50 158 5 -5 15 -53 21 -105z m3021 64 c107
-25 318 -90 313 -96 -6 -5 -234 48 -323 75 -65 20 -150 59 -100 47 11 -3 61
-15 110 -26z m-1826 -19 c24 -18 24 -18 -49 -19 l-73 0 29 19 c36 24 62 24 93
0z m-664 -10 c-11 -10 -248 -62 -254 -55 -9 8 9 16 81 34 119 30 191 38 173
21z m-2130 -60 l90 -17 -60 -12 c-138 -27 -575 -58 -575 -41 0 25 271 87 380
88 41 0 116 -8 165 -18z m2330 -66 c-71 -24 -131 -44 -132 -44 -2 -1 -3 6 -3
14 0 8 9 19 20 25 35 19 163 49 205 49 33 -1 18 -8 -90 -44z m-1152 11 c6 -16
-10 -22 -178 -66 -75 -20 -261 -49 -313 -50 -23 0 -23 0 5 24 75 62 205 93
449 104 20 1 34 -4 37 -12z m6265 -6 c47 -14 -7 -10 -73 5 l-60 14 53 -5 c29
-3 65 -10 80 -14z m-1644 -71 c250 -63 481 -146 434 -157 -22 -4 -77 11 -318
89 -352 113 -397 139 -116 68z m-5380 -28 c16 -6 12 -11 -27 -29 -93 -44 -196
-54 -263 -26 -31 13 -35 18 -22 25 47 26 268 47 312 30z m-394 -47 c0 -17 -86
-60 -141 -70 -49 -9 -28 9 57 51 81 39 84 40 84 19z m2435 -73 c-133 -38 -309
-75 -326 -68 -33 12 159 69 287 86 132 17 143 11 39 -18z m4793 13 c6 -2 12
-8 12 -13 0 -8 -96 12 -107 23 -5 5 73 -3 95 -10z m-8268 -54 c20 -5 4 -12
-74 -34 -73 -21 -133 -30 -223 -35 -175 -9 -163 16 32 63 60 15 217 18 265 6z
m6342 -31 c51 -22 101 -43 111 -46 9 -3 17 -11 17 -18 0 -14 -56 5 -170 58
-130 61 -93 66 42 6z m2245 4 c-3 -3 -11 -2 -17 2 -9 6 -9 10 1 16 14 8 27 -7
16 -18z m-3460 -51 c26 -16 120 -65 208 -109 232 -117 417 -233 423 -267 3
-16 1 -16 -31 -2 -19 7 -108 58 -198 113 -90 54 -222 129 -294 166 -146 76
-181 99 -171 116 9 15 8 15 63 -17z m-3143 6 c-3 -4 -35 -8 -72 -8 -65 0 -245
-13 -384 -29 -38 -4 -68 -4 -68 0 0 13 48 19 250 30 113 5 210 11 215 13 22 6
64 2 59 -6z m6821 2 l20 -9 -20 0 c-11 0 -29 4 -40 9 l-20 9 20 0 c11 0 29 -4
40 -9z m-7800 -31 c-66 -10 -162 -27 -212 -37 -73 -15 -93 -17 -93 -7 0 17 65
31 205 45 60 6 111 13 114 16 2 2 27 3 55 3 40 -1 25 -5 -69 -20z m-455 -9 c0
-5 -4 -10 -10 -10 -5 0 -10 5 -10 10 0 6 5 10 10 10 6 0 10 -4 10 -10z m3005
-55 c-33 -8 -98 -21 -145 -30 -93 -18 -231 -44 -270 -51 l-25 -5 26 24 c20 18
47 27 105 36 159 24 280 39 324 39 l45 0 -60 -13z m-3145 -49 c0 -2 -18 -6
-39 -8 -22 -2 -37 0 -35 4 5 8 74 11 74 4z m2528 -21 c-2 -5 -46 -27 -98 -48
-86 -35 -96 -37 -107 -22 -15 22 -6 44 22 51 40 10 170 32 178 30 5 -1 7 -6 5
-11z m-1313 -6 c3 -4 -20 -10 -52 -13 -107 -13 -287 -47 -408 -78 -107 -27
-131 -30 -220 -25 -80 4 -102 9 -112 24 -12 16 -11 19 14 25 30 8 376 52 513
66 98 9 256 10 265 1z m-1436 -10 c63 -1 70 -2 41 -9 -55 -13 -476 -44 -496
-36 -16 6 -16 8 -1 23 24 25 94 32 246 27 74 -2 168 -4 210 -5z m2426 -9 c3
-6 -1 -7 -9 -4 -18 7 -21 14 -7 14 6 0 13 -4 16 -10z m1503 -2 c-7 -21 -86
-76 -126 -89 -20 -6 -86 -13 -147 -15 -88 -3 -103 -1 -75 7 19 6 77 26 128 45
91 34 184 62 210 63 8 1 12 -5 10 -11z m-1461 -52 c4 -3 4 -8 2 -10 -7 -6
-439 -13 -433 -7 21 21 412 36 431 17z m6162 -93 c-13 -15 4 -43 27 -43 8 0
14 -7 14 -15 0 -24 -62 -7 -85 24 -11 14 -44 52 -74 84 l-55 58 92 -47 c74
-38 90 -50 81 -61z m-8114 77 c-3 -5 -11 -10 -16 -10 -6 0 -7 5 -4 10 3 6 11
10 16 10 6 0 7 -4 4 -10z m1399 -88 c-72 -27 -228 -42 -245 -25 -11 11 277 62
300 55 8 -3 -17 -17 -55 -30z m1565 24 c9 -10 3 -16 -31 -29 -57 -22 -252 -67
-280 -66 -20 1 -21 2 -3 5 66 14 106 28 117 42 13 15 1 14 -77 -4 -20 -5 -20
-5 -1 10 11 9 29 16 40 17 24 1 36 3 136 22 41 9 78 16 81 16 4 1 12 -5 18
-13z m1625 -33 c114 -69 344 -222 418 -277 232 -173 322 -246 314 -253 -6 -7
22 -52 64 -100 38 -45 617 -483 637 -483 7 0 13 8 13 19 0 11 -29 41 -77 77
-156 119 -210 161 -317 244 -59 47 -118 93 -130 103 l-21 18 25 -12 c63 -31
245 -149 345 -224 61 -45 151 -108 200 -141 50 -32 135 -102 190 -155 55 -53
120 -114 144 -135 25 -22 70 -62 101 -89 69 -63 295 -243 503 -400 87 -66 187
-142 223 -170 35 -27 119 -92 186 -143 68 -51 165 -125 216 -165 l92 -72 0
-48 c0 -26 6 -63 14 -81 l14 -34 -36 21 c-47 27 -185 132 -283 217 -189 162
-321 270 -494 405 -71 55 -167 132 -214 170 -47 39 -124 99 -171 135 -47 35
-127 99 -179 142 -51 42 -128 101 -170 129 -42 29 -119 87 -171 129 -52 42
-138 108 -190 148 -214 161 -384 293 -505 392 -71 58 -169 136 -219 175 -133
102 -484 388 -556 453 -56 51 -45 53 34 5z m-6006 15 c-3 -7 -25 -16 -49 -20
-24 -3 -93 -20 -153 -37 -128 -36 -116 -34 -116 -17 0 17 34 31 140 55 135 31
183 36 178 19z m1472 3 c25 -5 42 -9 39 -10 -3 0 -68 -10 -145 -20 -76 -11
-177 -29 -224 -40 -85 -20 -310 -61 -336 -61 -8 0 -14 6 -14 14 0 16 56 40
115 50 22 4 100 18 174 32 214 41 308 49 391 35z m918 -195 c26 -83 53 -151
59 -153 16 -6 25 49 13 81 -14 38 -14 38 19 5 25 -24 37 -29 78 -29 26 1 67 5
91 9 23 5 42 5 42 0 0 -4 -25 -27 -56 -51 -31 -24 -68 -52 -81 -63 l-24 -20
81 -60 c118 -87 150 -115 150 -132 0 -11 -8 -13 -27 -9 -16 3 -61 8 -101 12
-62 5 -76 3 -92 -11 -17 -15 -22 -16 -36 -5 -13 12 -17 11 -25 -1 -16 -25 -28
-82 -35 -166 -4 -46 -10 -83 -13 -83 -3 0 -14 33 -24 73 -10 39 -27 102 -38
139 l-19 66 -88 7 c-48 3 -111 11 -141 18 l-54 12 64 42 c35 23 81 49 103 58
23 10 35 20 29 26 -5 5 -42 20 -83 35 -41 14 -82 30 -90 35 -24 14 38 11 127
-6 43 -8 84 -15 92 -15 11 0 12 22 6 125 -7 126 0 234 15 218 5 -4 31 -75 58
-157z m6757 120 c191 -60 218 -68 305 -99 84 -30 136 -57 69 -36 -19 6 -56 17
-84 24 -128 32 -445 146 -404 145 2 0 54 -16 114 -34z m191 3 c3 -5 1 -9 -5
-9 -17 0 -41 12 -41 20 0 10 38 1 46 -11z m-5609 5 c-3 -3 -12 -4 -19 -1 -8 3
-5 6 6 6 11 1 17 -2 13 -5z m-1727 -14 c49 0 80 -4 75 -9 -9 -8 -304 3 -365
13 -14 3 27 3 90 0 63 -2 153 -4 200 -4z m1670 0 c-14 -5 -83 -24 -155 -43
-71 -20 -139 -39 -150 -43 -17 -6 -18 -5 -7 7 7 7 79 30 160 51 135 34 212 48
152 28z m367 -6 c-3 -3 -12 -4 -19 -1 -8 3 -5 6 6 6 11 1 17 -2 13 -5z m-3369
-20 c18 -15 -161 -49 -413 -79 -71 -8 -147 -18 -167 -21 -35 -6 -38 -5 -38 18
0 39 31 59 107 69 37 5 91 13 118 18 43 8 384 4 393 -5z m2432 -31 c-84 -39
-219 -93 -234 -93 -24 0 23 29 72 45 29 9 90 32 135 50 107 44 122 43 27 -2z
m4780 -8 c0 -8 -4 -15 -10 -15 -5 0 -10 7 -10 15 0 8 5 15 10 15 6 0 10 -7 10
-15z m-2795 -12 c-22 -2 -143 -19 -270 -38 -348 -52 -328 -50 -323 -34 3 9 30
17 74 23 38 4 141 19 229 31 88 13 198 23 245 22 47 0 67 -2 45 -4z m1585 -62
c66 -41 210 -155 158 -125 -21 12 -202 136 -213 146 -14 13 24 -2 55 -21z
m-5211 5 c-9 -9 -309 -67 -326 -63 -33 7 29 25 159 46 125 19 175 24 167 17z
m6946 -54 c-3 -3 -11 0 -18 7 -9 10 -8 11 6 5 10 -3 15 -9 12 -12z m-8547 3
c-11 -11 -238 -83 -238 -76 0 21 76 60 145 74 30 7 99 8 93 2z m3792 -12 c0
-8 -123 -43 -322 -91 -88 -21 -118 -24 -118 -15 0 7 3 13 6 13 14 0 409 91
413 95 7 8 21 6 21 -2z m-2675 -23 c-11 -5 -54 -8 -95 -8 -63 1 -68 2 -30 7
75 11 148 11 125 1z m4349 -15 c-15 -12 -16 -16 -5 -24 17 -11 -1 -15 -149
-36 -115 -16 -240 -20 -224 -7 30 27 255 78 353 81 42 1 43 0 25 -14z m3405
-39 c25 -27 169 -94 346 -161 143 -54 175 -62 186 -44 7 11 9 10 9 -3 0 -10
18 -28 40 -40 45 -26 49 -33 20 -41 -25 -6 -104 14 -190 49 -109 44 -397 173
-445 201 -44 24 -45 26 -29 44 23 25 36 24 63 -5z m-4560 -10 c-7 -7 -359
-106 -375 -106 -24 0 -6 19 34 36 68 29 361 89 341 70z m-2165 -16 c-12 -12
-242 -26 -231 -14 5 5 54 12 110 15 56 3 109 6 117 7 9 1 11 -1 4 -8z m3943
-84 c47 -52 166 -197 218 -266 27 -36 90 -114 140 -175 50 -60 139 -175 199
-255 59 -80 119 -161 134 -180 15 -19 40 -55 55 -79 16 -25 55 -79 86 -120 60
-80 193 -291 253 -401 19 -36 45 -83 58 -105 12 -22 29 -57 36 -77 l13 -38
-38 0 c-21 0 -74 -2 -117 -5 -53 -3 -69 -2 -49 4 17 5 65 9 108 10 42 0 77 4
77 8 0 12 -166 227 -224 290 -75 82 -266 332 -266 349 0 8 -11 21 -24 29 -13
9 -54 62 -91 118 -38 56 -98 147 -135 202 -37 55 -86 134 -110 175 -24 41 -98
154 -165 250 -140 200 -215 315 -215 327 0 4 7 0 15 -11 8 -10 27 -32 42 -50z
m-5192 43 c-38 -4 -123 -12 -187 -18 -84 -8 -139 -19 -197 -41 -77 -28 -81
-28 -81 -10 0 11 10 26 23 35 32 20 237 40 442 42 l70 0 -70 -8z m-820 -56
c-90 -34 -336 -71 -312 -47 8 8 292 62 327 62 20 1 17 -3 -15 -15z m155 1 c0
-2 -13 -4 -30 -4 -16 0 -30 4 -30 8 0 5 14 7 30 4 17 -2 30 -6 30 -8z m2724 6
c-11 -11 -162 -27 -152 -15 4 4 40 10 80 15 40 4 75 8 78 9 2 0 0 -3 -6 -9z
m-1369 -60 c-55 -11 -140 -18 -190 -18 l-90 1 105 8 c58 4 123 12 145 18 22 5
60 9 85 9 34 0 20 -5 -55 -18z m2045 -9 c0 -5 -30 -14 -67 -21 -80 -14 -116
-31 -165 -78 -41 -39 -45 -38 -24 11 22 54 47 68 143 82 116 17 113 16 113 6z
m3669 -67 c114 -91 206 -160 222 -166 20 -8 247 -184 292 -226 85 -82 21 -55
-117 49 -302 228 -453 352 -483 399 -19 28 -22 31 86 -56z m-3269 61 c0 -7
-135 -69 -218 -101 -90 -35 -73 -11 23 33 124 55 195 80 195 68z m1410 -60
c-60 -17 -305 -72 -355 -80 -22 -3 -48 -8 -57 -11 -10 -3 -18 -1 -18 4 0 10
227 67 349 87 100 17 140 17 81 0z m3808 -31 c129 -53 141 -74 20 -33 -71 24
-114 44 -123 59 -11 17 13 11 103 -26z m-8408 10 c-53 -16 -252 -54 -289 -54
-33 0 -17 14 34 31 64 21 165 37 235 37 l65 1 -45 -15z m1006 -3 c-10 -15
-206 -54 -206 -42 0 4 46 17 103 28 56 11 103 21 105 22 2 0 1 -3 -2 -8z
m-1581 -60 l40 -7 -60 -7 c-33 -3 -100 -16 -148 -27 -97 -23 -161 -20 -135 6
7 8 38 23 68 34 55 20 121 20 235 1z m1140 -22 c-22 -4 -65 -7 -95 -7 -54 1
-54 1 -15 8 22 4 65 7 95 7 54 1 55 1 15 -8z m3295 2 c0 -5 -33 -14 -72 -21
-109 -18 -177 -36 -357 -96 -168 -56 -191 -61 -191 -44 0 27 164 96 335 140
111 29 285 42 285 21z m1222 -16 c3 -14 0 -29 -6 -34 -12 -9 -177 -34 -184
-27 -7 8 48 38 111 62 78 29 74 29 79 -1z m-2277 -20 c-47 -29 -55 -30 -55
-10 0 19 28 34 65 35 l30 0 -40 -25z m-1380 -1 c-25 -9 -125 -20 -125 -13 0 4
10 10 23 12 28 5 115 7 102 1z m-150 -23 c-12 -11 -113 -27 -103 -16 8 8 62
22 93 24 12 1 15 -3 10 -8z m4533 -98 c65 -59 293 -280 507 -492 375 -371 518
-527 648 -709 32 -45 88 -116 125 -159 109 -126 220 -274 267 -353 17 -30 -38
26 -103 104 l-66 78 -180 -5 c-208 -7 -189 9 26 21 l128 7 -63 72 c-34 39
-126 138 -204 220 -78 81 -215 227 -304 323 -89 96 -208 222 -263 280 -211
218 -496 524 -551 590 -47 57 -98 130 -90 130 4 0 59 -48 123 -107z m-6771 71
c-3 -3 -12 -4 -19 -1 -8 3 -5 6 6 6 11 1 17 -2 13 -5z m1266 -5 c43 0 56 -3
42 -9 -32 -13 -155 -33 -162 -26 -10 10 30 47 45 41 7 -3 41 -5 75 -6z m2379
-68 c-22 -9 -44 -19 -48 -23 -12 -13 -34 -9 -34 6 0 8 11 28 25 45 l26 30 36
-21 35 -21 -40 -16z m-3111 23 c-41 -17 -147 -34 -211 -33 -31 1 -16 5 50 14
52 7 111 18 130 23 53 15 69 13 31 -4z m1379 -18 c0 -3 -4 -8 -10 -11 -5 -3
-10 -1 -10 4 0 6 5 11 10 11 6 0 10 -2 10 -4z m3363 -3 c-7 -2 -21 -2 -30 0
-10 3 -4 5 12 5 17 0 24 -2 18 -5z m-193 -42 c-80 -21 -198 -52 -264 -70 -123
-33 -161 -36 -81 -5 59 22 432 113 465 113 14 0 -40 -17 -120 -38z m-4134 14
c-11 -8 -24 -15 -29 -15 -4 0 -57 -23 -116 -50 -117 -54 -183 -67 -189 -37 -4
20 -4 20 108 41 47 9 119 29 160 45 88 34 91 35 66 16z m3138 0 c11 -8 18 -17
15 -19 -5 -5 -133 -25 -137 -21 -2 2 89 53 98 54 3 0 14 -6 24 -14z m-975 -31
c9 -8 -7 -9 -77 -6 -40 2 -70 7 -67 12 4 7 135 2 144 -6z m701 -2 c0 -8 -71
-52 -84 -52 -30 0 33 46 82 59 1 1 2 -3 2 -7z m-2331 -47 c-2 -1 -40 -6 -84
-9 l-80 -6 80 18 c44 9 82 13 84 9 1 -5 1 -10 0 -12z m824 8 c7 -5 -6 -10 -33
-14 -47 -7 -76 5 -51 20 16 10 65 6 84 -6z m3255 -135 c39 -84 74 -163 77
-176 l7 -23 34 30 c30 27 131 67 141 57 2 -2 -15 -18 -37 -36 -57 -45 -66 -73
-38 -113 12 -18 27 -36 33 -40 14 -11 190 2 245 19 25 8 46 14 48 14 6 0 -42
-65 -52 -72 -6 -4 -33 -12 -61 -19 -27 -6 -61 -18 -74 -26 l-23 -15 28 -30 29
-29 -29 5 c-15 3 -54 19 -87 36 -66 34 -99 38 -100 13 0 -10 0 -88 1 -173 1
-85 -1 -152 -5 -149 -3 4 -19 46 -36 94 -29 86 -57 138 -88 163 -11 9 -51 11
-163 6 -81 -4 -148 -4 -148 -1 0 10 117 67 185 91 33 12 61 26 63 31 2 6 -22
15 -52 21 -30 6 -71 19 -93 29 l-38 19 65 13 c36 6 85 12 109 13 l44 0 -7 53
c-4 28 -18 93 -31 143 -28 109 -41 204 -28 204 5 0 41 -69 81 -152z m550 147
c-7 -7 -162 -45 -166 -40 -2 2 16 9 39 15 24 6 55 15 69 20 27 9 66 13 58 5z
m-1593 -71 c-38 -7 -95 -12 -125 -12 -50 1 -46 2 35 13 122 17 179 16 90 -1z
m754 -19 c-9 -9 -356 -94 -448 -109 -120 -20 -131 -20 -131 2 0 29 221 82 440
105 56 6 144 7 139 2z m-1309 -40 c0 -2 -33 -14 -72 -26 -40 -11 -142 -43
-227 -70 -84 -28 -156 -47 -159 -44 -8 7 -8 7 113 49 177 62 345 106 345 91z
m-1645 -25 c-3 -5 -30 -9 -58 -9 -45 1 -48 2 -22 9 45 11 87 11 80 0z m-280
-15 c-27 -7 -66 -13 -85 -13 -30 0 -27 2 20 13 76 18 134 17 65 0z m550 -66
c-130 -42 -155 -46 -155 -25 0 27 35 41 129 52 151 18 154 15 26 -27z m3672
25 c-9 -9 -308 -74 -337 -73 -27 1 133 43 245 64 82 15 101 17 92 9z m-1640
-10 c-3 -3 -12 -4 -19 -1 -8 3 -5 6 6 6 11 1 17 -2 13 -5z m-171 -53 c22 -17
22 -19 6 -33 -24 -22 -71 -34 -192 -53 -194 -30 -285 -46 -305 -52 -40 -11 -8
5 108 56 65 29 146 58 180 66 34 8 80 18 102 24 60 14 75 13 101 -8z m-1271
-35 c-71 -24 -143 -49 -158 -56 -25 -12 -30 -11 -49 8 -12 12 -19 24 -16 27
20 20 225 62 308 63 39 1 29 -5 -85 -42z m762 18 c-3 -3 -12 -4 -19 -1 -8 3
-5 6 6 6 11 1 17 -2 13 -5z m-57 -11 c-66 -12 -278 -68 -385 -103 -113 -36
-201 -53 -340 -64 -56 -4 -59 -4 -40 11 11 8 34 21 52 29 61 27 329 84 439 95
61 6 135 16 165 24 30 7 72 13 94 13 25 -1 30 -2 15 -5z m-1065 -13 c-47 -13
-186 -32 -192 -27 -8 9 121 35 172 35 44 0 46 -1 20 -8z m2320 -20 c3 -5 -1
-10 -10 -10 -9 0 -54 -13 -100 -30 -115 -40 -272 -82 -293 -78 -9 2 64 27 163
56 99 29 189 57 200 62 27 12 33 12 40 0z m1515 -81 c-25 -4 -56 -8 -70 -8
-23 0 -23 1 -5 9 11 5 43 8 70 8 l50 -1 -45 -8z m1856 -165 c40 -32 100 -81
134 -109 34 -27 69 -56 78 -64 22 -23 -3 -26 -36 -5 -42 28 -332 296 -332 308
0 5 19 -8 43 -30 23 -22 74 -67 113 -100z m-2206 80 c-136 -25 -157 -28 -146
-17 10 10 184 41 231 41 23 0 -14 -10 -85 -24z m1616 -114 c33 -30 125 -111
205 -180 181 -157 291 -261 549 -525 313 -318 365 -379 245 -288 -44 34 -132
115 -195 180 -190 195 -417 420 -570 565 -218 207 -330 317 -330 324 0 9 24
-11 96 -76z m-4191 61 c-6 -5 -55 -21 -110 -34 -55 -14 -108 -29 -117 -32 -11
-4 -18 -3 -18 4 0 16 42 31 150 51 52 10 97 18 100 19 2 0 0 -3 -5 -8z m270
-32 c-63 -26 -280 -79 -320 -79 -58 1 1 21 168 57 89 19 164 36 166 39 2 2 11
4 20 3 9 0 -6 -9 -34 -20z m1074 -1 c-11 -21 -86 -122 -125 -171 -9 -11 -14
-20 -12 -22 13 -11 126 -45 169 -51 48 -6 51 -8 33 -21 -13 -10 -41 -13 -94
-11 -88 3 -88 3 -66 -93 8 -35 13 -65 11 -67 -5 -5 -55 53 -87 100 -18 28 -29
37 -32 27 -2 -7 -10 -32 -16 -54 -14 -47 -36 -85 -50 -85 -5 0 -14 27 -21 61
-16 80 -28 91 -90 83 -69 -9 -63 8 19 51 114 61 110 52 58 136 -25 41 -46 80
-46 88 0 9 26 -10 59 -43 32 -32 63 -56 69 -52 5 3 15 34 22 68 l13 63 13 -30
c7 -16 13 -41 14 -54 l0 -25 33 31 c39 37 117 93 129 93 5 0 3 -10 -3 -22z
m-699 -9 c-81 -20 -97 -23 -87 -13 9 9 107 32 137 32 14 0 -9 -8 -50 -19z
m2500 15 c-58 -7 -200 -8 -200 -1 0 4 51 6 113 6 61 -1 101 -3 87 -5z m-2204
-58 c10 -8 16 -18 12 -22 -11 -10 -71 9 -76 24 -5 17 39 15 64 -2z m1769 -14
c-12 -10 -144 -48 -200 -58 -77 -13 -22 14 80 39 112 28 134 31 120 19z
m-2376 -46 c-7 -7 -212 -46 -217 -42 -5 6 26 14 113 32 62 12 111 17 104 10z
m2832 -64 c38 2 63 1 56 -3 -15 -9 -166 -33 -171 -28 -3 2 -8 17 -12 32 l-7
29 33 -17 c25 -13 51 -16 101 -13z m-2566 -14 c-94 -30 -287 -70 -297 -60 -5
5 62 24 149 44 175 40 242 47 148 16z m1102 -34 c-3 -3 -12 -4 -19 -1 -8 3 -5
6 6 6 11 1 17 -2 13 -5z m-147 -19 c-115 -16 -140 -9 -30 8 14 3 48 4 75 5 36
0 23 -4 -45 -13z m1428 -14 c9 -5 -28 -15 -100 -25 -62 -10 -124 -20 -137 -23
-16 -4 -22 -2 -17 5 8 14 72 32 146 42 79 11 93 11 108 1z m-558 -21 c0 -21
-76 -43 -259 -75 -186 -32 -97 13 109 56 160 33 150 31 150 19z m-1089 -37
c13 -16 12 -17 -3 -4 -10 7 -18 15 -18 17 0 8 8 3 21 -13z m-561 -18 c-88 -47
-150 -69 -162 -57 -30 30 72 80 162 81 l45 0 -45 -24z m2950 -50 c-9 -11 -31
-15 -84 -14 l-71 1 70 13 c101 18 100 18 85 0z m-395 -22 c-16 -2 -97 -15
-179 -29 -148 -25 -208 -28 -99 -5 126 27 210 39 258 39 30 -1 38 -3 20 -5z
m2133 -164 c2 -4 19 -18 38 -29 19 -12 31 -27 28 -32 -4 -7 -2 -8 4 -4 7 4 45
-19 90 -56 99 -80 272 -239 272 -250 0 -33 -91 38 -310 243 -63 59 -137 125
-165 147 -27 22 -70 61 -95 87 -39 41 -33 38 45 -25 50 -40 91 -76 93 -81z
m-4588 132 c0 -9 -53 -27 -134 -47 -39 -9 -27 10 22 36 38 20 112 27 112 11z
m860 -5 c0 -10 -391 -88 -399 -81 -7 8 47 24 181 53 120 27 218 39 218 28z
m908 -33 c2 -9 -7 -13 -26 -13 -16 0 -85 -14 -152 -31 -67 -17 -124 -28 -127
-26 -4 5 170 65 232 80 32 8 68 3 73 -10z m-571 -69 c5 -15 -48 -36 -189 -75
-152 -42 -158 -43 -158 -31 0 5 17 20 38 34 91 60 297 108 309 72z m3954 -60
c12 -14 11 -16 -5 -13 -11 2 -21 10 -24 17 -5 17 13 15 29 -4z m-1217 -259
c96 -110 146 -180 146 -204 0 -18 -12 -6 -90 94 -30 39 -95 117 -145 175 -90
104 -135 163 -135 174 0 9 122 -122 224 -239z m-1786 220 c-8 -8 -410 -87
-415 -81 -6 5 151 41 288 66 114 20 135 23 127 15z m-1608 -31 c-63 -28 -255
-94 -272 -94 -26 0 -22 23 10 52 23 22 37 26 87 27 33 0 87 7 120 15 81 18 97
18 55 0z m1030 -3 c-17 -10 -131 -41 -151 -41 -51 0 91 47 146 49 16 0 17 -1
5 -8z m-420 -101 c0 -3 -26 -12 -57 -19 -32 -7 -68 -15 -80 -18 -19 -4 -23 -1
-23 20 0 24 1 25 80 23 44 0 80 -3 80 -6z m1610 -30 c0 -5 -9 -14 -19 -20 -34
-18 -222 -59 -341 -75 -135 -18 -140 -18 -140 -5 0 6 11 10 24 10 12 0 68 14
123 30 54 17 146 39 204 48 132 23 149 24 149 12z m-725 -183 c8 -44 17 -82
19 -85 10 -10 24 11 36 53 9 33 17 45 29 43 12 -2 17 -18 19 -66 2 -40 7 -62
15 -62 59 -2 261 -38 264 -47 3 -7 -20 -13 -64 -17 -109 -10 -223 -28 -228
-36 -2 -4 24 -38 58 -76 63 -69 107 -132 107 -152 0 -7 -44 17 -97 52 l-98 64
-3 -69 c-2 -38 -6 -69 -11 -69 -4 0 -13 40 -20 90 -7 49 -16 92 -21 95 -5 3
-50 -15 -102 -40 -93 -46 -195 -81 -205 -72 -5 6 171 182 196 197 22 12 7 24
-54 44 -27 9 -66 26 -85 38 l-35 23 30 3 c16 2 64 -1 107 -8 43 -6 83 -8 89
-4 8 5 10 36 7 98 -3 50 -3 107 0 126 l5 35 13 -38 c8 -22 20 -75 29 -120z
m-350 123 c-11 -5 -34 -9 -51 -9 -17 -1 -100 -14 -185 -31 -155 -30 -327 -40
-358 -21 -20 13 -3 19 89 31 263 35 557 52 505 30z m1295 -14 c0 -3 -4 -8 -10
-11 -5 -3 -10 -1 -10 4 0 6 5 11 10 11 6 0 10 -2 10 -4z m-2160 -149 c-36 -10
-85 -25 -110 -33 -82 -28 -90 -28 -90 -7 0 42 34 56 143 63 56 3 107 3 112 1
6 -3 -19 -14 -55 -24z m290 26 c0 -5 -40 -18 -88 -31 -133 -35 -155 -36 -87
-6 33 14 83 29 110 34 28 4 53 8 58 9 4 0 7 -2 7 -6z m3837 -257 c70 -67 112
-115 109 -123 -3 -8 -2 -12 3 -9 9 6 126 -142 119 -149 -2 -2 -30 26 -62 63
-32 37 -104 114 -159 172 -56 58 -144 150 -197 204 l-95 100 84 -75 c47 -41
136 -123 198 -183z m-1744 237 c-7 -2 -19 -2 -25 0 -7 3 -2 5 12 5 14 0 19 -2
13 -5z m-153 -24 c-73 -13 -125 -27 -142 -40 -16 -11 -28 -16 -28 -11 0 27
145 70 240 70 29 0 5 -7 -70 -19z m1450 -252 c123 -138 145 -166 137 -173 -8
-8 -88 70 -214 207 -112 123 -143 162 -113 144 9 -5 11 -4 6 4 -4 6 -11 9 -16
6 -9 -6 -31 18 -34 37 -1 7 -5 20 -10 28 -12 23 116 -110 244 -253z m-1732
198 c-12 -12 -303 -72 -307 -63 -1 5 -1 11 1 13 2 2 60 13 128 25 69 12 136
25 150 29 25 8 38 6 28 -4z m1272 -5 c0 -5 -4 -10 -10 -10 -5 0 -10 5 -10 10
0 6 5 10 10 10 6 0 10 -4 10 -10z m-42 -6 c-8 -8 -360 -65 -366 -59 -12 11 73
37 163 49 107 14 212 20 203 10z m-2408 -22 c0 -9 -318 -69 -440 -82 -173 -20
-287 -9 -217 20 45 19 245 53 347 60 155 10 310 11 310 2z m1829 -46 c-7 -7
-251 -35 -349 -40 -78 -4 -86 -3 -45 5 109 20 407 47 394 35z m-1014 -56 c3
-5 1 -10 -4 -10 -6 0 -11 5 -11 10 0 6 2 10 4 10 3 0 8 -4 11 -10z m430 -15
c-21 -9 -243 -53 -295 -60 -30 -3 -64 -9 -75 -12 -14 -4 -17 -2 -10 5 6 6 87
24 180 40 157 27 225 36 200 27z m-1268 -71 c-3 -3 -12 -4 -19 -1 -8 3 -5 6 6
6 11 1 17 -2 13 -5z m-192 -39 c-88 -19 -177 -38 -197 -43 -21 -5 -38 -6 -38
-2 0 10 105 37 225 59 171 32 178 21 10 -14z m2349 -4 c3 -5 -22 -16 -57 -26
-233 -63 -253 -65 -441 -37 l-119 18 96 13 c239 33 510 50 521 32z m766 -26
c7 -9 11 -17 9 -19 -5 -4 -153 -23 -246 -32 -39 -3 -98 -3 -130 1 l-58 8 50 9
c28 4 113 15 189 23 77 8 142 17 144 20 10 10 30 5 42 -10z m-1580 -34 c0 -21
-149 -48 -292 -53 -106 -4 -101 8 19 39 63 16 114 22 181 21 50 0 92 -3 92 -7z
m-1235 -41 c-3 -5 -19 -10 -34 -10 -15 0 -95 -14 -177 -30 -82 -17 -158 -29
-169 -28 -11 2 48 18 130 35 198 43 261 51 250 33z m3333 -213 c69 -83 97
-127 84 -127 -16 0 -263 285 -287 330 -14 26 145 -132 203 -203z m-939 189
c-7 -7 -231 -36 -274 -35 -58 1 -31 8 87 23 104 14 195 19 187 12z m-2094
-132 c-65 -12 -153 -18 -130 -8 17 7 128 22 165 22 22 0 9 -5 -35 -14z m1727
0 c21 -11 27 -19 20 -26 -16 -16 -289 -35 -303 -21 -18 18 21 32 113 44 45 6
85 12 87 15 10 9 54 3 83 -12z m-867 -34 c-12 -4 -54 -13 -95 -19 -45 -7 -98
-23 -133 -41 -70 -37 -111 -46 -280 -65 -178 -20 -293 -20 -301 0 -4 11 2 15
27 15 18 0 51 9 75 20 74 33 188 52 317 52 79 -1 152 5 215 18 128 25 211 35
175 20z m1635 -30 c0 -5 -10 -10 -22 -11 -13 0 -49 -4 -81 -8 -62 -8 -101 3
-51 14 16 4 34 8 39 10 24 8 115 4 115 -5z m-2981 -26 c-19 -18 -78 -33 -131
-34 -36 0 -49 12 -28 25 15 9 90 23 135 24 36 1 38 0 24 -15z m1574 -14 c-7
-27 -50 -38 -213 -56 -74 -8 -146 -19 -159 -25 -21 -9 -41 -6 -30 5 7 7 267
77 319 86 79 13 89 12 83 -10z m1747 -14 c-28 -26 -165 -48 -184 -29 -6 6 88
26 189 42 5 0 3 -5 -5 -13z m-560 -21 l65 -24 -92 0 c-51 -1 -93 2 -93 5 0 6
42 43 50 44 3 0 34 -11 70 -25z m-2355 -69 c26 -11 5 -13 -170 -18 -110 -3
-202 -4 -204 -2 -9 9 9 14 84 22 120 14 256 13 290 -2z m2091 -27 c3 -6 2 -15
-3 -20 -13 -13 -271 -39 -393 -39 -109 0 -168 16 -199 53 -12 16 8 17 287 17
206 0 303 -3 308 -11z m1129 -39 c40 -41 42 -64 3 -38 -25 17 -65 78 -51 78 5
0 26 -18 48 -40z m-352 -19 c23 -5 68 -15 101 -21 85 -17 55 -29 -51 -19 -96
9 -143 22 -143 39 0 12 38 13 93 1z m-127 -58 c-12 -54 -17 -178 -8 -192 13
-19 46 -6 38 15 -5 12 -1 14 17 7 12 -4 55 -7 95 -5 39 1 72 -1 72 -5 0 -4
-29 -21 -65 -37 -35 -15 -74 -39 -86 -52 -21 -22 -21 -25 -6 -48 9 -13 44 -45
77 -71 65 -50 104 -105 75 -105 -9 0 -55 20 -102 45 -47 25 -89 43 -93 40 -13
-8 -28 -90 -41 -215 -6 -63 -15 -119 -19 -124 -13 -14 -29 59 -40 188 -7 74
-17 130 -28 151 l-17 33 -70 -24 c-38 -13 -104 -29 -145 -35 -41 -6 -82 -15
-92 -20 -37 -20 -16 10 60 85 42 43 94 86 115 97 20 11 37 23 37 28 0 4 -16
38 -36 75 -19 37 -34 70 -31 72 2 2 30 -11 62 -31 33 -19 63 -35 69 -35 5 0
20 -9 32 -21 l22 -21 7 34 c10 42 87 198 98 198 5 0 7 -12 3 -27z m-1397 -9
c11 -4 12 -7 3 -16 -7 -7 -39 -12 -78 -11 -86 1 -261 25 -240 33 19 6 293 1
315 -6z m-569 -20 c0 -9 -62 -32 -150 -54 -98 -25 -362 -72 -368 -65 -7 7 4
10 253 65 126 28 232 53 234 56 6 6 31 5 31 -2z m-652 -19 c2 -2 -34 -6 -80
-10 -46 -4 -119 -13 -163 -21 -94 -16 -125 -18 -125 -4 0 20 44 31 153 39 95
7 204 5 215 -4z m1741 -69 c-7 -7 -309 -46 -356 -46 -23 0 -43 5 -43 10 0 6
25 10 55 10 30 0 101 7 157 15 144 20 200 24 187 11z m397 -3 c-12 -12 -230
-33 -240 -23 -15 15 54 26 173 29 41 0 71 -2 67 -6z m954 -51 c0 -10 -11 -12
-47 -6 -82 12 -92 22 -20 21 49 -1 67 -5 67 -15z m320 -2 c0 -5 -2 -10 -4 -10
-3 0 -8 5 -11 10 -3 6 -1 10 4 10 6 0 11 -4 11 -10z m-2420 -9 c0 -10 -51 -23
-310 -75 -252 -50 -267 -52 -290 -31 -27 25 -25 35 8 35 16 0 111 14 213 31
101 17 225 34 274 38 50 5 93 9 98 10 4 0 7 -3 7 -8z m-940 -29 c0 -7 -177
-32 -229 -32 -45 0 -5 24 52 31 78 9 177 10 177 1z m1359 -45 c-7 -6 -232 -37
-236 -33 -6 6 89 25 168 35 59 6 79 6 68 -2z m1924 -4 c-29 -2 -78 -2 -110 0
-32 2 -8 3 52 3 61 0 87 -1 58 -3z m-3023 -83 c12 -7 8 -10 -15 -10 -16 0 -68
-9 -115 -21 -124 -30 -205 -36 -213 -16 -7 18 26 31 113 46 75 12 212 13 230
1z m1780 0 c13 -8 13 -9 0 -14 -30 -9 -116 -25 -170 -31 -30 -3 -116 -17 -191
-31 -106 -19 -163 -24 -254 -22 -78 2 -120 7 -122 14 -2 7 12 14 34 17 21 2
92 14 158 26 230 41 511 62 545 41z m-1130 -35 c-101 -25 -230 -43 -218 -30 9
10 242 53 283 53 17 0 -13 -11 -65 -23z m-450 -93 c0 -5 -53 -15 -117 -22 -65
-7 -143 -19 -173 -26 -30 -7 -57 -11 -59 -9 -10 11 64 27 193 44 78 10 144 19
149 20 4 0 7 -3 7 -7z m2395 -72 c3 -5 1 -10 -4 -10 -6 0 -11 5 -11 10 0 6 2
10 4 10 3 0 8 -4 11 -10z m408 -1 c-13 -13 -203 -25 -229 -15 -39 15 12 26
126 26 82 0 111 -3 103 -11z m-278 -9 c4 -6 -5 -10 -19 -10 -14 0 -26 5 -26
10 0 6 9 10 19 10 11 0 23 -4 26 -10z m-2185 -39 c0 -20 -346 -80 -500 -87
-95 -4 -214 -17 -280 -30 -19 -4 -22 -3 -14 6 7 6 58 18 115 26 57 8 133 23
169 33 54 16 139 32 300 55 54 7 210 5 210 -3z m475 0 c-11 -5 -64 -11 -118
-15 -53 -3 -117 -9 -142 -13 -27 -3 -45 -2 -45 4 0 5 42 14 93 20 116 12 239
15 212 4z m785 -37 c-130 -14 -207 -17 -196 -7 9 9 133 20 231 20 l80 0 -115
-13z m-202 -99 c-3 -3 -55 -10 -116 -15 -60 -5 -139 -12 -173 -16 -85 -9 -70
4 23 21 71 13 277 20 266 10z m1102 -14 c0 -20 -69 -31 -191 -31 -116 0 -129
2 -129 18 0 15 15 17 160 20 91 1 160 -2 160 -7z m-1620 -69 c0 -10 -180 -31
-315 -37 l-100 -4 125 14 c69 8 159 19 200 24 41 4 78 9 83 10 4 0 7 -3 7 -7z
m-1061 -7 c-9 -8 -181 -66 -185 -62 -10 9 26 27 91 46 69 19 103 25 94 16z
m2173 -33 c9 -9 -25 -12 -140 -12 -137 0 -177 7 -139 24 23 11 267 0 279 -12z
m-424 -45 l19 -34 -46 5 c-25 2 -109 -5 -186 -17 -77 -11 -183 -21 -235 -23
-80 -3 -95 -1 -98 13 -2 14 14 17 105 23 335 21 403 30 403 56 0 20 19 9 38
-23z m-1358 15 c0 -4 -68 -15 -150 -23 -83 -7 -150 -11 -150 -7 0 8 57 17 168
28 112 11 132 11 132 2z m2508 -48 c18 -3 30 -9 27 -15 -8 -12 -395 -12 -395
0 0 24 245 34 368 15z m-1739 -39 c-3 -2 -84 -13 -180 -24 -96 -11 -198 -25
-228 -31 -65 -12 -74 -12 -67 -2 7 12 100 32 224 47 108 13 259 19 251 10z
m620 -120 c-8 -8 -169 -11 -169 -3 0 5 39 8 87 8 47 0 84 -2 82 -5z m-1504
-30 c-49 -14 -102 -27 -116 -31 -30 -7 -107 22 -93 35 13 14 56 18 184 19
l115 0 -90 -23z m1114 12 c-2 -2 -76 -16 -164 -31 -88 -16 -196 -37 -240 -48
-90 -22 -238 -48 -244 -42 -7 6 50 24 184 59 191 48 239 57 355 64 98 6 119 6
109 -2z m830 -8 c80 -1 89 -3 56 -10 -49 -10 -203 -1 -212 14 -4 7 5 8 27 4
18 -4 76 -8 129 -8z m-441 -66 c-16 -2 -40 -2 -55 0 -16 2 -3 4 27 4 30 0 43
-2 28 -4z m845 -43 c37 -7 66 -14 65 -16 -2 -2 -69 -11 -148 -20 -143 -16
-373 -16 -412 1 -94 39 319 69 495 35z m-2313 0 c0 -5 -7 -10 -16 -10 -8 0
-12 5 -9 10 3 6 10 10 16 10 5 0 9 -4 9 -10z m278 -2 c-3 -8 -65 -21 -174 -35
-284 -37 -322 -24 -49 17 83 12 155 24 160 25 28 9 66 4 63 -7z m1087 -68 c60
-6 51 -7 -62 -7 -73 0 -133 4 -133 8 0 10 94 10 195 -1z m108 3 c-7 -2 -19 -2
-25 0 -7 3 -2 5 12 5 14 0 19 -2 13 -5z m-889 -124 c-9 -29 -26 -79 -39 -109
-12 -30 -25 -69 -28 -87 -6 -29 -4 -33 26 -42 31 -9 171 -23 368 -37 53 -3
102 -9 108 -14 16 -9 -137 -30 -224 -30 -38 1 -113 7 -165 14 -52 8 -99 10
-104 6 -20 -20 18 -69 94 -124 71 -50 129 -110 118 -121 -6 -6 -182 60 -219
82 -40 24 -43 20 -94 -167 -18 -66 -24 -75 -51 -84 -19 -6 -22 2 -48 126 -15
73 -32 150 -38 171 l-11 37 -101 0 c-94 0 -146 -7 -188 -25 -27 -11 -21 10 6
23 13 6 52 32 87 57 34 25 69 50 77 54 13 7 11 14 -10 42 -14 19 -28 39 -32
46 -4 7 39 -4 94 -24 55 -20 103 -33 106 -30 3 3 7 32 9 64 2 32 3 61 4 66 3
19 33 4 41 -20 25 -70 22 -70 81 8 31 41 66 92 79 114 53 91 80 94 54 4z
m1834 1 c61 -12 81 -31 45 -44 -16 -7 -43 -5 -238 15 -132 13 -145 16 -145 36
0 14 15 15 138 10 75 -3 165 -11 200 -17z m-2223 -11 c-16 -5 -73 -11 -125
-13 l-95 -5 100 13 c55 7 111 13 125 14 23 0 22 -1 -5 -9z m785 -49 c-14 -4
-86 -8 -160 -7 -93 0 -119 2 -85 7 72 10 276 10 245 0z m533 -70 c26 -6 47
-15 47 -20 0 -40 -146 -66 -304 -56 -136 9 -266 27 -266 37 0 9 75 33 151 49
56 12 309 5 372 -10z m402 -64 c11 -2 -13 -4 -52 -5 -40 0 -73 2 -73 7 0 6 79
5 125 -2z m-1830 -6 c5 -9 -184 -3 -194 6 -2 2 39 4 92 4 53 0 99 -4 102 -10z
m2275 -26 c157 -18 271 -40 285 -56 12 -13 -30 -8 -170 22 -55 12 -161 27
-235 34 -96 10 -118 14 -75 15 33 0 121 -6 195 -15z m-408 -99 c-40 -7 -103
-22 -140 -33 -37 -11 -99 -25 -139 -31 -85 -13 -313 -15 -313 -3 0 31 154 57
283 48 96 -6 99 -6 94 14 -5 19 -1 20 141 19 l147 -1 -73 -13z m-643 -192 c20
-8 14 -12 -50 -32 -105 -32 -203 -38 -274 -16 -62 20 -60 25 20 52 44 14 261
11 304 -4z m1019 -9 c12 -2 22 -9 22 -16 0 -8 -38 -9 -132 -5 -138 6 -178 13
-178 29 0 9 237 3 288 -8z m-1790 -91 c-16 -2 -40 -2 -55 0 -16 2 -3 4 27 4
30 0 43 -2 28 -4z m150 -10 c-21 -2 -57 -2 -80 0 -24 2 -7 4 37 4 44 0 63 -2
43 -4z m-544 -12 c6 -8 -155 -33 -163 -25 -11 11 16 20 77 25 37 3 70 7 74 7
4 1 9 -2 12 -7z m1446 -91 c18 -30 -11 -35 -213 -38 -189 -3 -201 -2 -185 14
29 29 114 43 256 41 105 -2 135 -5 142 -17z m-560 -59 c0 -13 -205 -41 -302
-41 -81 0 -88 2 -88 20 0 17 8 20 88 23 194 7 302 7 302 -2z m-843 -38 c-87
-15 -105 -14 -92 6 4 7 41 11 93 10 l87 -1 -88 -15z m2202 -11 c40 -6 42 -8
27 -21 -23 -20 -96 -25 -231 -16 -80 5 -115 11 -112 19 2 6 17 14 33 17 39 9
228 9 283 1z m-990 -133 c87 -1 79 -3 -84 -15 -99 -8 -202 -18 -228 -22 -26
-5 -50 -5 -53 -1 -14 24 115 50 210 43 32 -2 102 -5 155 -5z m-1029 -19 c0 -5
-3 -10 -7 -10 -56 -1 -199 -23 -210 -32 -19 -16 -30 -1 -12 17 10 10 48 18
110 24 52 4 100 9 107 10 6 0 12 -3 12 -9z m183 -17 c-13 -2 -33 -2 -45 0 -13
2 -3 4 22 4 25 0 35 -2 23 -4z m140 0 c-7 -2 -21 -2 -30 0 -10 3 -4 5 12 5 17
0 24 -2 18 -5z m-66 -9 c-3 -3 -12 -4 -19 -1 -8 3 -5 6 6 6 11 1 17 -2 13 -5z
m1657 -42 c21 -12 -61 -22 -324 -37 -146 -8 -268 -15 -272 -15 -5 0 -8 4 -8 8
0 11 138 43 230 53 82 8 357 2 374 -9z m-1477 -68 c-7 -7 -189 -34 -231 -34
-54 0 -13 19 59 29 84 10 181 13 172 5z m553 -44 c0 -6 -66 -9 -182 -8 l-183
2 155 6 c85 3 167 7 183 8 15 1 27 -2 27 -8z m-1010 -40 c-172 -19 -214 -22
-207 -14 11 12 96 21 192 21 l80 0 -65 -7z m1762 -70 l-32 -30 -183 0 c-166 0
-368 17 -452 39 -17 4 65 9 194 10 124 1 227 4 230 6 2 3 65 5 140 5 l136 -1
-33 -29z m-1673 -35 c-4 -3 -95 -20 -159 -28 -8 -1 -16 3 -18 8 -1 6 24 13 55
16 82 8 127 10 122 4z m699 -15 c116 -12 202 -26 209 -33 10 -9 -54 -12 -300
-12 -315 0 -507 10 -507 26 0 5 33 9 73 10 39 0 106 6 147 13 107 19 156 19
378 -4z m1195 -81 c23 -7 51 -19 62 -26 17 -12 4 -13 -95 -8 -113 7 -140 16
-140 48 0 12 114 2 173 -14z m-1773 -47 c0 -9 -203 -42 -254 -42 -52 0 -19 12
86 30 116 20 168 24 168 12z m1439 -98 c9 -8 -195 -2 -219 7 -15 5 23 6 95 2
66 -3 122 -7 124 -9z m-489 -3 c62 -6 21 -8 -150 -8 -138 0 -206 3 -165 7 98
9 215 9 315 1z m-696 -31 c-11 -11 -234 -30 -324 -29 -38 1 -31 4 45 19 101
20 296 27 279 10z m1376 -9 c47 -6 121 -13 165 -17 66 -6 75 -8 55 -16 -36
-14 -461 5 -446 19 13 14 85 32 111 28 17 -2 68 -9 115 -14z m-405 -106 c55
-8 118 -18 140 -22 36 -6 38 -7 15 -14 -66 -19 -276 -3 -307 23 -39 32 2 35
152 13z m-962 -26 c-13 -13 -193 -28 -193 -17 0 5 21 8 48 9 26 0 65 4 87 8
61 13 71 13 58 0z m387 -28 c26 -8 -17 -14 -206 -27 -90 -6 -142 4 -129 27 7
11 297 11 335 0z m-772 -26 c-5 -5 -200 -35 -232 -35 -38 0 -7 11 65 24 74 14
177 20 167 11z m1999 -23 c100 -4 185 -11 189 -15 4 -4 -78 -7 -182 -7 -119 0
-222 -6 -279 -15 -118 -19 -166 -20 -159 -1 7 19 160 56 209 50 22 -2 122 -8
222 -12z m-912 -108 c197 -22 247 -34 120 -29 -141 6 -382 25 -430 35 -77 15
164 11 310 -6z m-710 -45 c5 -5 -18 -9 -57 -9 -88 0 -189 11 -183 20 6 10 228
0 240 -11z"/>
<path d="M7838 10233 c6 -2 18 -2 25 0 6 3 1 5 -13 5 -14 0 -19 -2 -12 -5z"/>
<path d="M7993 10233 c20 -2 54 -2 75 0 20 2 3 4 -38 4 -41 0 -58 -2 -37 -4z"/>
<path d="M8773 10233 c9 -2 23 -2 30 0 6 3 -1 5 -18 5 -16 0 -22 -2 -12 -5z"/>
<path d="M8913 10233 c37 -2 97 -2 135 0 37 2 6 3 -68 3 -74 0 -105 -1 -67 -3z"/>
<path d="M9158 10233 c23 -2 59 -2 80 0 20 2 1 4 -43 4 -44 0 -61 -2 -37 -4z"/>
<path d="M10203 10233 c9 -2 23 -2 30 0 6 3 -1 5 -18 5 -16 0 -22 -2 -12 -5z"/>
<path d="M5830 8340 c-50 -10 -90 -28 -90 -40 0 -10 12 -9 92 11 63 16 62 41
-2 29z"/>
<path d="M5975 8311 c-8 -14 5 -19 66 -27 30 -3 64 -13 77 -20 22 -15 28 -9
14 13 -20 31 -142 57 -157 34z"/>
<path d="M5589 8251 c-57 -22 -134 -75 -143 -96 -19 -51 4 -59 41 -15 14 17
59 49 99 71 41 23 72 45 68 50 -7 12 -11 11 -65 -10z"/>
<path d="M5773 8250 c-31 -13 -29 -30 3 -30 29 0 64 16 64 30 0 12 -37 12 -67
0z"/>
<path d="M6077 8163 c-19 -19 16 -73 48 -73 21 0 19 16 -7 50 -22 31 -30 35
-41 23z"/>
<path d="M6244 8145 c-5 -12 -1 -23 12 -32 17 -12 19 -12 22 3 2 9 -3 23 -12
32 -14 14 -16 14 -22 -3z"/>
<path d="M5940 8120 c0 -24 5 -31 25 -35 14 -3 36 -7 50 -10 39 -8 31 19 -12
41 -21 10 -39 22 -41 27 -9 18 -22 4 -22 -23z"/>
<path d="M5834 8089 c-19 -21 -19 -21 11 -17 19 2 31 10 33 21 5 24 -21 22
-44 -4z"/>
<path d="M5913 8003 c4 -21 14 -44 24 -50 22 -17 58 -16 72 0 11 14 -6 35 -59
70 -36 25 -43 21 -37 -20z"/>
<path d="M5780 7991 c-8 -29 -8 -47 0 -61 20 -37 115 -44 115 -9 0 8 -23 36
-52 62 l-52 49 -11 -41z"/>
<path d="M5655 7913 c-55 -76 -60 -164 -10 -197 42 -27 113 -42 135 -28 24 15
50 16 50 2 0 -5 5 -10 12 -10 6 0 4 7 -5 18 -24 26 -21 39 11 59 15 9 29 18
31 20 3 2 -5 10 -17 19 -12 8 -22 21 -22 27 0 7 -13 28 -29 47 -28 34 -30 34
-48 18 -27 -25 -33 -23 -33 11 0 25 -21 61 -36 61 -2 0 -19 -21 -39 -47z"/>
<path d="M6100 7899 c0 -43 3 -50 18 -47 30 6 28 98 -3 98 -11 0 -15 -13 -15
-51z"/>
<path d="M6242 7884 c-7 -42 -7 -61 1 -66 19 -12 27 2 27 50 0 75 -16 84 -28
16z"/>
<path d="M6018 7821 c-24 -24 -23 -31 6 -31 27 0 59 26 51 41 -9 14 -38 9 -57
-10z"/>
<path d="M6740 7811 c0 -11 93 -47 134 -52 51 -7 39 18 -19 40 -58 22 -115 28
-115 12z"/>
<path d="M6117 7774 c-14 -14 -7 -35 11 -32 9 2 17 10 17 17 0 16 -18 25 -28
15z"/>
<path d="M6172 7690 c-19 -42 -96 -119 -132 -132 -40 -13 -58 -44 -31 -53 39
-12 124 52 214 161 21 26 13 54 -17 54 -14 0 -26 -10 -34 -30z"/>
<path d="M5990 7684 c-16 -29 -72 -76 -113 -95 -35 -16 -34 -25 5 -38 29 -10
34 -9 61 16 35 34 87 111 87 130 0 22 -26 14 -40 -13z"/>
<path d="M6960 7546 c0 -8 5 -18 10 -21 6 -3 10 3 10 14 0 12 -4 21 -10 21 -5
0 -10 -6 -10 -14z"/>
<path d="M7000 7532 c0 -4 89 -51 198 -104 207 -102 343 -173 389 -205 15 -11
36 -23 46 -26 29 -11 20 29 -12 52 -71 51 -574 291 -609 291 -7 0 -12 -4 -12
-8z"/>
<path d="M5620 7501 c0 -15 6 -21 21 -21 25 0 55 -16 88 -46 20 -19 37 -24 76
-24 53 0 78 12 89 43 5 15 2 17 -17 11 -25 -8 -23 -8 -90 -6 -28 1 -46 6 -42
12 6 10 -42 33 -94 45 -27 6 -31 4 -31 -14z"/>
<path d="M6733 7493 c-7 -2 -13 -8 -13 -12 0 -9 143 -95 295 -178 50 -28 122
-69 160 -92 39 -23 237 -124 440 -226 421 -209 762 -385 984 -507 30 -17 111
-59 180 -95 69 -36 191 -105 271 -153 80 -48 208 -120 285 -160 77 -40 185
-103 240 -139 135 -91 280 -180 465 -288 215 -125 200 -119 200 -89 0 26 -3
28 -218 150 -90 51 -381 230 -442 272 -25 17 -110 68 -189 113 -203 116 -268
156 -501 309 -113 74 -268 176 -345 227 -77 51 -151 98 -165 105 -14 7 -108
68 -210 135 -106 70 -264 163 -369 216 -101 52 -202 104 -225 116 -23 12 -50
23 -61 23 -40 0 27 -47 170 -120 152 -78 214 -114 345 -199 104 -67 331 -207
382 -235 21 -12 38 -25 38 -29 0 -4 -24 5 -54 22 -30 16 -112 55 -182 86 -132
58 -336 168 -549 294 -136 81 -192 110 -425 216 -91 42 -203 98 -250 124 -161
92 -233 124 -257 114z"/>
<path d="M8063 7433 c4 -6 40 -24 80 -39 39 -15 78 -32 85 -37 7 -6 15 -8 17
-5 3 3 0 10 -7 15 -11 8 -39 20 -167 71 -9 3 -12 1 -8 -5z"/>
<path d="M5680 7361 c-21 -14 -12 -19 58 -27 42 -4 62 -3 62 4 0 15 -8 19 -60
26 -25 3 -52 2 -60 -3z"/>
<path d="M7090 7051 c0 -17 168 -138 265 -191 33 -18 90 -52 127 -76 86 -55
128 -77 136 -70 11 12 -35 49 -153 123 -66 42 -158 102 -205 133 -121 82 -170
105 -170 81z"/>
<path d="M8150 6619 c0 -8 7 -24 15 -35 11 -14 14 -15 14 -4 0 8 -6 24 -14 34
-11 15 -15 16 -15 5z"/>
<path d="M8302 6488 c5 -14 124 -93 280 -188 129 -78 326 -207 371 -242 20
-16 37 -36 37 -43 0 -12 -6 -12 -37 -1 -94 35 -225 103 -380 198 -28 17 -33
17 -33 4 0 -28 98 -93 357 -239 38 -21 104 -59 148 -84 44 -25 166 -91 270
-148 392 -211 422 -229 680 -391 72 -45 150 -92 175 -104 43 -22 64 -40 55
-48 -2 -3 -39 16 -82 40 -187 108 -232 128 -203 93 15 -18 187 -122 245 -149
22 -10 43 -21 48 -23 4 -2 7 71 7 164 l0 168 -126 64 c-89 45 -129 60 -137 52
-7 -7 -21 -1 -47 23 -39 35 -190 132 -318 204 -42 24 -117 70 -167 102 -49 31
-135 81 -190 110 -55 29 -119 63 -142 76 -50 29 -68 31 -54 7 5 -10 58 -45
116 -78 59 -33 174 -104 256 -158 83 -54 154 -95 160 -92 10 7 25 -22 16 -31
-9 -10 -473 226 -577 293 -310 202 -696 433 -724 433 -4 0 -6 -6 -4 -12z"/>
<path d="M525 5649 c-295 -36 -319 -42 -436 -121 l-89 -60 0 -128 0 -128 51
-22 c72 -30 163 -47 314 -58 210 -15 322 5 655 113 107 35 269 82 360 104 91
22 176 44 190 49 l25 10 -26 10 c-70 27 -125 35 -252 37 -113 1 -140 4 -154
18 -22 22 -6 40 53 63 39 15 62 16 172 8 70 -4 210 -9 312 -9 129 -1 209 -7
264 -18 83 -18 99 -16 75 8 -42 42 -368 109 -579 120 -187 9 -866 12 -935 4z"/>
<path d="M1845 5313 c-11 -2 -69 -19 -130 -38 -151 -47 -381 -106 -560 -145
-172 -37 -243 -62 -358 -124 -93 -50 -137 -62 -166 -46 -26 13 -41 6 -136 -65
-163 -122 -295 -268 -295 -327 0 -16 36 -59 63 -74 55 -31 -91 -234 -169 -234
-25 0 -58 33 -78 80 -14 31 -15 -162 -16 -1897 0 -1872 1 -1933 18 -1933 11 0
26 -8 36 -18 14 -16 15 -32 10 -104 l-7 -84 -28 4 -29 4 0 -156 0 -156 2830 0
2831 0 -40 53 c-46 61 -72 111 -96 187 -16 47 -17 76 -11 228 l7 174 -59 82
c-32 44 -101 144 -152 221 -164 246 -218 294 -406 359 -71 24 -191 67 -266 95
-154 57 -224 69 -282 49 -34 -11 -45 -23 -80 -88 -24 -42 -55 -83 -73 -95 -29
-20 -130 -45 -323 -81 -47 -8 -150 -17 -230 -19 -247 -8 -351 -33 -425 -103
-65 -62 -109 -83 -188 -91 -98 -9 -253 3 -302 23 -22 9 -82 44 -134 78 -182
118 -288 148 -487 141 -124 -5 -132 -4 -219 26 -117 40 -150 40 -235 -5 -65
-34 -88 -55 -218 -197 -50 -56 -78 -60 -124 -18 l-33 30 63 61 c34 34 79 68
100 77 20 8 60 32 87 53 44 33 175 96 370 176 33 13 83 36 110 51 254 134 457
223 511 223 71 0 108 -48 102 -131 l-3 -49 130 -2 c287 -6 430 9 486 48 40 27
52 27 166 -12 63 -20 100 -10 114 33 15 47 8 84 -40 208 -23 57 -41 112 -41
123 0 34 25 46 71 34 25 -6 51 -7 65 -2 73 28 71 205 -3 243 -15 8 -100 25
-188 37 -89 13 -191 34 -230 47 -142 50 -144 51 -166 23 -31 -41 -32 -78 -4
-159 14 -41 25 -79 25 -84 0 -16 -98 0 -154 26 -30 14 -72 42 -96 63 -46 42
-46 39 -16 169 33 144 18 218 -61 306 -58 66 -65 92 -32 133 30 38 46 44 150
56 52 6 106 16 121 21 33 13 107 97 178 202 30 44 60 81 68 84 7 3 30 -4 50
-16 109 -65 125 -62 228 42 39 40 107 101 151 137 44 36 86 73 93 84 20 31
-16 54 -160 103 -73 24 -165 60 -204 80 -97 48 -120 54 -175 43 -25 -5 -72
-12 -104 -16 -108 -11 -149 -72 -172 -259 -19 -150 -29 -169 -101 -185 -52
-12 -108 8 -189 67 -104 76 -232 153 -258 156 -17 2 -23 -4 -25 -25 -2 -20 15
-57 59 -130 111 -184 123 -222 93 -298 -14 -35 -30 -48 -133 -108 -64 -38
-174 -95 -246 -128 l-130 -59 -107 0 c-72 0 -111 -4 -119 -12 -7 -7 -24 -13
-37 -13 -54 0 -83 -44 -97 -149 -10 -76 -31 -92 -198 -145 -198 -64 -324 -76
-392 -39 -40 22 -84 80 -120 155 -45 97 -152 215 -203 224 -29 6 -36 2 -71
-37 -182 -206 -201 -237 -164 -257 15 -9 14 -16 -6 -97 -38 -151 -86 -221
-171 -246 -31 -9 -49 -9 -79 -1 -62 19 -65 30 -27 103 45 84 67 171 75 294 6
85 12 110 39 162 131 259 155 301 186 328 19 17 98 60 176 95 78 35 152 72
165 82 13 10 31 40 39 66 21 61 57 95 174 165 180 108 470 195 585 176 20 -3
40 -9 44 -13 8 -8 -18 -58 -59 -114 -47 -62 -37 -67 142 -67 142 0 151 1 172
23 21 21 23 30 20 119 -1 53 0 104 3 114 7 22 56 53 150 96 189 86 479 287
532 368 46 70 60 79 87 53 32 -30 142 -20 267 25 l96 35 139 -7 c76 -4 179 -4
229 1 91 9 216 45 222 64 5 15 -75 49 -187 80 -162 45 -171 73 -42 136 l87 43
115 -1 c77 -1 148 -9 215 -23 134 -30 200 -37 191 -22 -4 6 -37 30 -72 52 -35
23 -64 47 -64 54 0 32 31 40 157 38 90 -2 123 1 121 9 -10 28 -349 157 -508
193 -277 63 -959 148 -1155 145 -33 -1 -114 8 -180 20 -66 12 -184 24 -262 27
-79 3 -143 10 -143 14 0 15 62 99 80 109 11 6 66 21 124 35 58 14 142 36 188
49 116 33 242 41 342 22 44 -9 81 -14 84 -12 5 6 -56 36 -128 64 -111 43 -447
121 -568 132 -120 10 -152 11 -187 3z m-512 -314 c31 -18 57 -37 57 -41 0 -4
-22 -14 -49 -22 -69 -20 -108 -42 -128 -72 -14 -22 -14 -27 -2 -35 8 -5 22 -9
32 -9 30 0 77 -29 77 -48 0 -10 -7 -28 -17 -41 -18 -27 -190 -111 -225 -111
-13 0 -57 13 -98 30 -92 36 -130 37 -198 5 -66 -31 -77 -31 -96 -3 -22 31 -21
39 19 91 29 38 42 46 72 49 30 3 34 5 18 11 -53 21 -70 35 -79 64 -14 51 10
79 81 93 32 6 104 22 161 36 215 53 291 54 375 3z m698 -238 c36 -10 100 -37
142 -60 55 -31 102 -47 174 -62 54 -10 109 -28 123 -38 59 -43 88 -149 64
-232 -12 -40 -27 -58 -92 -112 -176 -147 -222 -224 -247 -419 -5 -36 -11 -49
-27 -54 -79 -25 -385 35 -453 88 -15 12 -40 50 -56 86 -36 79 -52 100 -118
152 -59 47 -111 122 -111 162 0 67 29 90 223 168 57 24 81 39 92 60 19 37 5
56 -79 105 -68 39 -90 72 -76 110 19 52 60 63 240 64 105 1 150 -3 201 -18z
m-885 -459 c65 -64 148 -141 184 -171 79 -65 140 -138 140 -169 0 -29 -70 -99
-131 -131 l-46 -25 -74 37 c-41 19 -117 59 -169 87 -52 28 -133 72 -180 97
-134 71 -188 116 -216 179 -13 30 -24 63 -24 73 0 22 54 71 78 71 80 0 201 24
237 45 22 13 49 24 61 25 13 0 63 -41 140 -118z m-922 -3928 c13 -13 15 -32 9
-115 -3 -54 -3 -99 1 -99 12 0 86 45 86 52 0 4 -9 12 -19 17 -18 10 -46 69
-37 78 2 3 15 -1 28 -7 95 -50 91 -132 -10 -184 -37 -19 -58 -16 -90 15 -20
18 -22 29 -22 150 0 125 1 129 19 119 11 -5 27 -17 35 -26z"/>
<path d="M9838 5183 c7 -3 16 -2 19 1 4 3 -2 6 -13 5 -11 0 -14 -3 -6 -6z"/>
<path d="M4920 3746 c0 -8 6 -16 14 -19 20 -8 194 -137 240 -179 23 -20 38
-39 34 -43 -9 -10 -55 17 -146 84 -45 34 -86 61 -92 61 -15 0 0 -31 36 -76 24
-29 47 -83 84 -198 59 -181 73 -201 146 -210 182 -22 248 -53 384 -182 97 -91
120 -107 120 -81 0 16 -21 46 -111 158 -42 52 -104 139 -138 194 -50 82 -61
108 -61 144 0 78 -67 147 -131 134 -19 -3 -38 5 -74 32 -47 36 -292 195 -301
195 -2 0 -4 -6 -4 -14z"/>
<path d="M4215 2771 c-17 -10 -47 -39 -68 -64 l-38 -47 -73 0 c-60 0 -76 -4
-95 -21 -28 -27 -47 -69 -66 -152 -13 -56 -13 -70 0 -118 44 -162 43 -174 -29
-222 -71 -46 -88 -84 -83 -177 7 -153 102 -266 231 -277 28 -2 80 -16 116 -31
53 -22 80 -26 150 -26 111 0 153 20 261 124 85 82 128 103 169 84 10 -5 69
-55 130 -112 180 -166 276 -219 421 -229 97 -7 139 7 180 58 41 52 67 51 120
-3 81 -86 192 -288 243 -443 9 -27 21 -57 26 -65 14 -23 42 -1 58 46 19 53 4
137 -53 312 -48 145 -91 223 -147 265 -44 33 -221 127 -239 127 -8 0 -33 -9
-54 -21 -52 -27 -97 -26 -234 7 -89 20 -120 32 -147 56 -56 49 -46 77 74 203
89 93 97 108 82 148 -26 66 -112 207 -142 232 -37 31 -74 47 -148 65 -30 7
-109 33 -175 57 -66 25 -165 54 -220 64 -59 12 -107 27 -117 37 -9 9 -19 36
-21 60 -7 69 -57 97 -112 63z"/>
<path d="M10194 1601 c-50 -31 -51 -41 -9 -78 21 -18 42 -33 47 -33 4 0 8 29
8 65 0 36 -3 65 -7 65 -5 0 -22 -9 -39 -19z"/>
<path d="M6266 1519 c-3 -17 -6 -53 -6 -79 0 -74 -26 -193 -54 -249 -14 -27
-57 -102 -95 -167 -39 -64 -75 -132 -82 -151 -24 -74 11 -292 51 -313 25 -13
66 0 107 34 21 18 75 58 120 89 100 70 137 112 187 214 45 90 49 132 23 253
-9 41 -20 97 -24 124 -7 43 -14 53 -51 80 -27 19 -60 58 -85 100 -23 38 -52
75 -63 83 -20 13 -22 12 -28 -18z"/>
</g>
</svg>
